<!-- Generated by IcoMoon.io -->
<svg version="1.1" xmlns="http://www.w3.org/2000/svg" width="32" height="32" viewBox="0 0 32 32">
<title>icon-why4svg</title>
<path fill="none" stroke-linejoin="miter" stroke-linecap="butt" stroke-miterlimit="4" stroke-width="2.0645" stroke="#000" d="M2.827 15.613c0 7.126 5.777 12.903 12.903 12.903 6.023 0 11.082-4.127 12.504-9.707 0.081-0.316-0.164-0.616-0.491-0.616h-4.385c-0.216 0-0.408 0.135-0.492 0.334-1.136 2.688-3.78 4.827-7.137 4.827-5.161 0-7.742-4.516-7.742-7.742 0-2.97 1.899-5.941 4.824-7.162 0.201-0.084 0.338-0.276 0.338-0.494v-4.358c0-0.326-0.3-0.571-0.616-0.491-5.58 1.422-9.707 6.481-9.707 12.504z"></path>
<path fill="none" stroke-linejoin="miter" stroke-linecap="butt" stroke-miterlimit="4" stroke-width="2.0645" stroke="#000" d="M2.827 15.613c0 7.126 5.777 12.903 12.903 12.903 6.023 0 11.082-4.127 12.504-9.707 0.081-0.316-0.164-0.616-0.491-0.616h-4.385c-0.216 0-0.408 0.135-0.492 0.334-1.136 2.688-3.78 4.827-7.137 4.827-5.161 0-7.742-4.516-7.742-7.742 0-2.97 1.899-5.941 4.824-7.162 0.201-0.084 0.338-0.276 0.338-0.494v-4.358c0-0.326-0.3-0.571-0.616-0.491-5.58 1.422-9.707 6.481-9.707 12.504z"></path>
<path fill="none" stroke-linejoin="miter" stroke-linecap="butt" stroke-miterlimit="4" stroke-width="2.0645" stroke="#000" d="M28.387 13.087c-1.012-5.1-5.030-9.117-10.129-10.13-0.31-0.061-0.591 0.181-0.591 0.497v4.289c0 0.232 0.156 0.435 0.377 0.507 2.29 0.755 4.283 2.588 5.070 5.046 0.072 0.223 0.275 0.382 0.51 0.382h4.267c0.316 0 0.558-0.281 0.497-0.591z"></path>
<path fill="none" stroke-linejoin="miter" stroke-linecap="butt" stroke-miterlimit="4" stroke-width="2.0645" stroke="#000" d="M28.387 13.087c-1.012-5.1-5.030-9.117-10.129-10.13-0.31-0.061-0.591 0.181-0.591 0.497v4.289c0 0.232 0.156 0.435 0.377 0.507 2.29 0.755 4.283 2.588 5.070 5.046 0.072 0.223 0.275 0.382 0.51 0.382h4.267c0.316 0 0.558-0.281 0.497-0.591z"></path>
</svg>
