<!-- Generated by IcoMoon.io -->
<svg version="1.1" xmlns="http://www.w3.org/2000/svg" width="32" height="32" viewBox="0 0 32 32">
<title>icon-why3svg</title>
<path fill="none" stroke-linejoin="miter" stroke-linecap="butt" stroke-miterlimit="10" stroke-width="2.0645" stroke="#000" d="M14.773 2.075c0.378-0.768 1.473-0.768 1.852 0l3.692 7.491c0.15 0.305 0.441 0.517 0.778 0.565l8.202 1.187c0.846 0.122 1.185 1.161 0.575 1.759l-5.956 5.837c-0.242 0.237-0.352 0.577-0.295 0.911l1.405 8.239c0.144 0.844-0.744 1.487-1.501 1.086l-7.343-3.891c-0.302-0.16-0.664-0.16-0.966 0l-7.343 3.891c-0.757 0.401-1.645-0.241-1.501-1.086l1.405-8.238c0.057-0.334-0.054-0.675-0.297-0.912l-5.981-5.835c-0.613-0.598-0.274-1.638 0.573-1.761l8.23-1.187c0.337-0.049 0.628-0.26 0.779-0.565l3.692-7.491z"></path>
<path fill="none" stroke-linejoin="miter" stroke-linecap="butt" stroke-miterlimit="10" stroke-width="2.0645" stroke="#000" d="M14.773 2.075c0.378-0.768 1.473-0.768 1.852 0l3.692 7.491c0.15 0.305 0.441 0.517 0.778 0.565l8.202 1.187c0.846 0.122 1.185 1.161 0.575 1.759l-5.956 5.837c-0.242 0.237-0.352 0.577-0.295 0.911l1.405 8.239c0.144 0.844-0.744 1.487-1.501 1.086l-7.343-3.891c-0.302-0.16-0.664-0.16-0.966 0l-7.343 3.891c-0.757 0.401-1.645-0.241-1.501-1.086l1.405-8.238c0.057-0.334-0.054-0.675-0.297-0.912l-5.981-5.835c-0.613-0.598-0.274-1.638 0.573-1.761l8.23-1.187c0.337-0.049 0.628-0.26 0.779-0.565l3.692-7.491z"></path>
</svg>
