<!-- Generated by IcoMoon.io -->
<svg version="1.1" xmlns="http://www.w3.org/2000/svg" width="32" height="32" viewBox="0 0 32 32">
<title>icon-why2svg</title>
<path fill="none" stroke-linejoin="miter" stroke-linecap="butt" stroke-miterlimit="4" stroke-width="2.0645" stroke="#000" d="M28.563 16.093c0-7.126-5.777-12.903-12.903-12.903s-12.903 5.777-12.903 12.903 5.777 12.903 12.903 12.903c7.126 0 12.903-5.777 12.903-12.903z"></path>
<path fill="none" stroke-linejoin="miter" stroke-linecap="butt" stroke-miterlimit="4" stroke-width="2.0645" stroke="#000" d="M28.563 16.093c0-7.126-5.777-12.903-12.903-12.903s-12.903 5.777-12.903 12.903 5.777 12.903 12.903 12.903c7.126 0 12.903-5.777 12.903-12.903z"></path>
<path fill="none" stroke-linejoin="miter" stroke-linecap="butt" stroke-miterlimit="4" stroke-width="2.0645" stroke="#000" d="M19.53 13.512c0 2.138-1.733 3.871-3.871 3.871s-3.871-1.733-3.871-3.871c0-2.138 1.733-3.871 3.871-3.871s3.871 1.733 3.871 3.871z"></path>
<path fill="none" stroke-linejoin="miter" stroke-linecap="butt" stroke-miterlimit="4" stroke-width="2.0645" stroke="#000" d="M19.53 13.512c0 2.138-1.733 3.871-3.871 3.871s-3.871-1.733-3.871-3.871c0-2.138 1.733-3.871 3.871-3.871s3.871 1.733 3.871 3.871z"></path>
<path fill="none" stroke-linejoin="miter" stroke-linecap="round" stroke-miterlimit="4" stroke-width="2.0645" stroke="#000" d="M23.401 26.416c0-2.85-3.466-5.161-7.742-5.161s-7.742 2.311-7.742 5.161"></path>
<path fill="none" stroke-linejoin="miter" stroke-linecap="round" stroke-miterlimit="4" stroke-width="2.0645" stroke="#000" d="M23.401 26.416c0-2.85-3.466-5.161-7.742-5.161s-7.742 2.311-7.742 5.161"></path>
</svg>
