<!-- Generated by IcoMoon.io -->
<svg version="1.1" xmlns="http://www.w3.org/2000/svg" width="36" height="32" viewBox="0 0 36 32">
<title>icon-why5svg</title>
<path fill="none" stroke-linejoin="miter" stroke-linecap="round" stroke-miterlimit="4" stroke-width="2.0645" stroke="#000" d="M18.065 9.030l1.714-1.72c2.851-2.861 7.27-2.947 10.218-0.201 3.317 3.091 3.489 8.531 0.375 11.854l-3.477 3.709-7.522 6.972c-0.751 0.696-1.867 0.696-2.619 0l-2.859-2.648"></path>
<path fill="none" stroke-linejoin="miter" stroke-linecap="round" stroke-miterlimit="4" stroke-width="2.0645" stroke="#000" d="M18.065 9.030l1.714-1.72c2.851-2.861 7.27-2.947 10.218-0.201 3.317 3.091 3.489 8.531 0.375 11.854l-3.477 3.709-7.522 6.972c-0.751 0.696-1.867 0.696-2.619 0l-2.859-2.648"></path>
<path fill="none" stroke-linejoin="miter" stroke-linecap="round" stroke-miterlimit="4" stroke-width="2.0645" stroke="#000" d="M18.063 9.029l-1.714-1.72c-2.851-2.861-7.27-2.948-10.218-0.201-3.317 3.091-3.489 8.531-0.375 11.853l3.477 3.709 7.521 6.972c0.751 0.696 1.867 0.696 2.618 0.001l2.86-2.648"></path>
<path fill="none" stroke-linejoin="miter" stroke-linecap="round" stroke-miterlimit="4" stroke-width="2.0645" stroke="#000" d="M18.063 9.029l-1.714-1.72c-2.851-2.861-7.27-2.948-10.218-0.201-3.317 3.091-3.489 8.531-0.375 11.853l3.477 3.709 7.521 6.972c0.751 0.696 1.867 0.696 2.618 0.001l2.86-2.648"></path>
</svg>
