<!-- Generated by IcoMoon.io -->
<svg version="1.1" xmlns="http://www.w3.org/2000/svg" width="31" height="32" viewBox="0 0 31 32">
<title>icon-why1svg</title>
<path d="M9.413 13.622l5.978-6.012 5.981 6.017 3.477-3.5-9.457-9.517-9.457 9.515 3.479 3.498z"></path>
<path d="M9.413 13.622l5.978-6.012 5.981 6.017 3.477-3.5-9.457-9.517-9.457 9.515 3.479 3.498z"></path>
<path d="M-0.001 16.094l3.478-3.499 3.478 3.499-3.478 3.499-3.478-3.499z"></path>
<path d="M-0.001 16.094l3.478-3.499 3.478 3.499-3.478 3.499-3.478-3.499z"></path>
<path d="M9.413 18.564l5.978 6.015 5.981-6.017 3.479 3.495-0.002 0.002-9.457 9.517-9.462-9.517 3.484-3.495z"></path>
<path d="M9.413 18.564l5.978 6.015 5.981-6.017 3.479 3.495-0.002 0.002-9.457 9.517-9.462-9.517 3.484-3.495z"></path>
<path d="M23.824 16.095l3.478-3.499 3.478 3.499-3.478 3.499-3.478-3.499z"></path>
<path d="M23.824 16.095l3.478-3.499 3.478 3.499-3.478 3.499-3.478-3.499z"></path>
<path d="M18.919 16.092l-3.528-3.552-3.533 3.552 0.005 0.007 3.528 3.547 3.528-3.554z"></path>
<path d="M18.919 16.092l-3.528-3.552-3.533 3.552 0.005 0.007 3.528 3.547 3.528-3.554z"></path>
</svg>
