<svg width="39" height="38" viewBox="0 0 39 38" fill="none" xmlns="http://www.w3.org/2000/svg">
<g id="bitcoin-black-icon 1" clip-path="url(#clip0_28_12)">
<path id="Vector" fill-rule="evenodd" clip-rule="evenodd" d="M19.5901 0C30.0835 0 38.5901 8.50657 38.5901 19C38.5901 29.4934 30.0835 38 19.5901 38C9.09667 38 0.590088 29.4934 0.590088 19C0.590088 8.50657 9.09667 0 19.5901 0ZM25.8699 14.964C25.5819 12.6376 23.6716 11.9755 21.2194 11.794L21.181 9.73778L19.282 9.74349L19.3587 11.7337L17.8005 11.7599L17.776 9.75581L15.8248 9.77556L15.9295 11.87L14.7123 11.9166L12.0933 11.9476L12.1792 13.937L13.5147 13.9144C14.3007 13.9274 14.5969 14.407 14.5905 14.8002C14.6767 17.8743 14.7224 20.037 14.7849 23.2444C14.7505 23.5332 14.6257 23.902 14.0621 23.8854L12.7266 23.9078L12.3851 26.1794L16.1691 26.1157L16.2876 28.2624L18.1205 28.2184L18.082 26.1621L19.5218 26.1117L19.6125 28.154L21.5115 28.1483L21.4591 26.0397C24.6378 25.8029 26.8626 24.9274 27.0748 21.9637C27.2179 19.5776 26.1003 18.5357 24.2599 18.1344C25.3374 17.5662 26.0143 16.5462 25.8699 14.964ZM23.3632 21.6726C23.3626 23.9645 19.3662 23.8615 18.0829 23.87L18.0257 19.6931C19.309 19.6846 23.3222 19.2242 23.3632 21.6726ZM22.2955 15.8098C22.3711 17.9697 19.0807 17.7893 17.9677 17.8079L17.904 14.0241C19.017 14.0053 22.3242 13.6222 22.2955 15.8098ZM19.5902 3.59886C28.096 3.59886 34.9914 10.4942 34.9914 19.0002C34.9914 27.5059 28.096 34.4012 19.5902 34.4012C11.0843 34.4012 4.18896 27.5059 4.18896 19.0002C4.18896 10.4942 11.0843 3.59886 19.5902 3.59886Z" fill="white"/>
</g>
<defs>
<clipPath id="clip0_28_12">
<rect width="38" height="38" fill="white" transform="translate(0.590088)"/>
</clipPath>
</defs>
</svg>
