<svg width="40" height="40" viewBox="0 0 40 40" fill="none" xmlns="http://www.w3.org/2000/svg">
<g id="credit-card-svgrepo-com-2 1" clip-path="url(#clip0_28_52)">
<g id="XMLID_88_">
<g id="Group">
<g id="Group_2">
<path id="Vector" d="M36.9487 7.46289H2.23144C1.04881 7.46289 0.0900879 8.4217 0.0900879 9.60425V23.5501H39.0901V9.60425C39.0901 8.4217 38.1314 7.46289 36.9487 7.46289ZM13.4944 17.2732C13.4943 17.8327 13.0365 18.2906 12.4769 18.2906H4.89362C4.33405 18.2906 3.87622 17.8327 3.87622 17.2732V13.7015C3.87622 13.142 4.33405 12.6841 4.89362 12.6841H12.477C13.0366 12.6841 13.4944 13.142 13.4944 13.7015V17.2732ZM26.6704 18.855C26.0342 19.2572 25.2809 19.4907 24.4726 19.4907C22.1969 19.4907 20.3521 17.6459 20.3521 15.3702C20.3521 13.0945 22.1969 11.2497 24.4726 11.2497C25.3311 11.2497 26.1282 11.5125 26.7881 11.9617C26.039 12.9409 25.5925 14.1633 25.5925 15.4886C25.5925 16.7426 25.9928 17.9041 26.6704 18.855ZM31.4087 19.6091C29.133 19.6091 27.2882 17.7642 27.2882 15.4886C27.2882 13.2129 29.133 11.3681 31.4087 11.3681C33.6844 11.3681 35.5292 13.2128 35.5292 15.4886C35.5292 17.7644 33.6844 19.6091 31.4087 19.6091Z" fill="white"/>
<path id="Vector_2" d="M0.0900879 30.3958C0.0900879 31.5784 1.04881 32.5372 2.23144 32.5372H36.9487C38.1314 32.5372 39.0901 31.5784 39.0901 30.3958V29.3154H0.0900879V30.3958Z" fill="white"/>
</g>
</g>
</g>
</g>
<defs>
<clipPath id="clip0_28_52">
<rect width="39" height="39" fill="white" transform="translate(0.0900879 0.5)"/>
</clipPath>
</defs>
</svg>
