<svg aria-hidden="true" style="position: absolute; width: 0; height: 0; overflow: hidden;" version="1.1" xmlns="http://www.w3.org/2000/svg" xmlns:xlink="http://www.w3.org/1999/xlink">
<defs>
<symbol id="icon-bitcoin" viewBox="0 0 33 32">
<path fill="#fff" style="fill: var(--color1, #fff)" d="M16.497 0c-8.837 0-16 7.163-16 16s7.163 16 16 16c8.837 0 16-7.163 16-16s-7.163-16-16-16zM21.785 12.601c-0.243-1.959-1.851-2.517-3.916-2.669l-0.032-1.732-1.599 0.005 0.065 1.676-1.312 0.022-0.021-1.688-1.643 0.017 0.088 1.764-1.025 0.039-2.205 0.026 0.072 1.675 1.125-0.019c0.662 0.011 0.911 0.415 0.906 0.746 0.073 2.589 0.111 4.41 0.164 7.111-0.029 0.243-0.134 0.554-0.609 0.54l-1.125 0.019-0.288 1.913 3.187-0.054 0.1 1.808 1.543-0.037-0.032-1.732 1.212-0.042 0.076 1.72 1.599-0.005-0.044-1.776c2.677-0.199 4.55-0.937 4.729-3.432 0.12-2.009-0.821-2.887-2.37-3.225 0.907-0.478 1.477-1.337 1.356-2.67zM19.674 18.251c-0 1.93-3.366 1.843-4.447 1.85l-0.048-3.517c1.081-0.007 4.46-0.395 4.495 1.667zM18.775 13.314c0.064 1.819-2.707 1.667-3.644 1.683l-0.054-3.186c0.937-0.016 3.722-0.338 3.698 1.504zM16.497 3.031c7.163 0 12.969 5.807 12.969 12.97s-5.807 12.969-12.969 12.969c-7.163 0-12.969-5.807-12.969-12.969s5.807-12.97 12.969-12.97z"></path>
</symbol>
<symbol id="icon-card" viewBox="0 0 32 32">
<path fill="#fff" style="fill: var(--color1, #fff)" d="M29.559 5.97h-27.774c-0.946 0-1.713 0.767-1.713 1.713v11.157h31.2v-11.157c0-0.946-0.767-1.713-1.713-1.713zM10.796 13.819c-0 0.448-0.366 0.814-0.814 0.814h-6.067c-0.448 0-0.814-0.366-0.814-0.814v-2.857c0-0.448 0.366-0.814 0.814-0.814h6.067c0.448 0 0.814 0.366 0.814 0.814v2.857zM21.336 15.084c-0.509 0.322-1.112 0.509-1.758 0.509-1.821 0-3.296-1.476-3.296-3.296s1.476-3.296 3.296-3.296c0.687 0 1.324 0.21 1.852 0.57-0.599 0.783-0.956 1.761-0.956 2.822 0 1.003 0.32 1.932 0.862 2.693zM25.127 15.687c-1.821 0-3.296-1.476-3.296-3.296s1.476-3.296 3.296-3.296 3.296 1.476 3.296 3.296c0 1.821-1.476 3.296-3.296 3.296z"></path>
<path fill="#fff" style="fill: var(--color1, #fff)" d="M0.072 24.317c0 0.946 0.767 1.713 1.713 1.713h27.774c0.946 0 1.713-0.767 1.713-1.713v-0.864h-31.2v0.864z"></path>
</symbol>
</defs>
</svg>
