<svg width="31" height="31" viewBox="0 0 31 31" fill="none" xmlns="http://www.w3.org/2000/svg">
<g id="icon-why4.svg">
<path id="Vector" d="M2.73837 15.1251C2.73837 22.0286 8.33481 27.6251 15.2384 27.6251C21.0731 27.6251 25.9741 23.6274 27.3519 18.2216C27.4299 17.9153 27.1927 17.6251 26.8766 17.6251H22.6289C22.4197 17.6251 22.2341 17.756 22.1527 17.9487C21.0522 20.5528 18.4906 22.6251 15.2384 22.6251C10.2384 22.6251 7.73837 18.2501 7.73837 15.1251C7.73837 12.2475 9.57844 9.36995 12.4114 8.18677C12.6057 8.10563 12.7384 7.91916 12.7384 7.70862V3.4868C12.7384 3.1707 12.4482 2.93349 12.1419 3.01156C6.73611 4.38923 2.73837 9.29029 2.73837 15.1251Z" stroke="url(#paint0_linear_1_751)" stroke-width="2"/>
<path id="Vector_2" d="M2.73837 15.1251C2.73837 22.0286 8.33481 27.6251 15.2384 27.6251C21.0731 27.6251 25.9741 23.6274 27.3519 18.2216C27.4299 17.9153 27.1927 17.6251 26.8766 17.6251H22.6289C22.4197 17.6251 22.2341 17.756 22.1527 17.9487C21.0522 20.5528 18.4906 22.6251 15.2384 22.6251C10.2384 22.6251 7.73837 18.2501 7.73837 15.1251C7.73837 12.2475 9.57844 9.36995 12.4114 8.18677C12.6057 8.10563 12.7384 7.91916 12.7384 7.70862V3.4868C12.7384 3.1707 12.4482 2.93349 12.1419 3.01156C6.73611 4.38923 2.73837 9.29029 2.73837 15.1251Z" stroke="url(#paint1_linear_1_751)" stroke-width="2"/>
<path id="Vector_3" d="M27.4999 12.6779C26.5193 7.73766 22.6274 3.84559 17.6873 2.86475C17.3874 2.80521 17.1149 3.04002 17.1149 3.34579V7.50039C17.1149 7.72563 17.266 7.92142 17.48 7.99192C19.6986 8.72309 21.6291 10.499 22.3918 12.8798C22.4612 13.0962 22.6582 13.2503 22.8854 13.2503H27.0189C27.3246 13.2503 27.5594 12.9778 27.4999 12.6779Z" stroke="url(#paint2_linear_1_751)" stroke-width="2"/>
<path id="Vector_4" d="M27.4999 12.6779C26.5193 7.73766 22.6274 3.84559 17.6873 2.86475C17.3874 2.80521 17.1149 3.04002 17.1149 3.34579V7.50039C17.1149 7.72563 17.266 7.92142 17.48 7.99192C19.6986 8.72309 21.6291 10.499 22.3918 12.8798C22.4612 13.0962 22.6582 13.2503 22.8854 13.2503H27.0189C27.3246 13.2503 27.5594 12.9778 27.4999 12.6779Z" stroke="url(#paint3_linear_1_751)" stroke-width="2"/>
</g>
<defs>
<linearGradient id="paint0_linear_1_751" x1="29.6363" y1="-9.11187" x2="-17.3864" y2="12.1812" gradientUnits="userSpaceOnUse">
<stop stop-color="#7DCEFF"/>
<stop offset="1" stop-color="#C42348"/>
</linearGradient>
<linearGradient id="paint1_linear_1_751" x1="29.6363" y1="-9.11187" x2="-17.3864" y2="12.1812" gradientUnits="userSpaceOnUse">
<stop stop-color="#7DCEFF"/>
<stop offset="1" stop-color="#C42348"/>
</linearGradient>
<linearGradient id="paint2_linear_1_751" x1="28.467" y1="-2.25507" x2="8.62105" y2="6.73121" gradientUnits="userSpaceOnUse">
<stop stop-color="#7DCEFF"/>
<stop offset="1" stop-color="#C42348"/>
</linearGradient>
<linearGradient id="paint3_linear_1_751" x1="28.467" y1="-2.25507" x2="8.62105" y2="6.73121" gradientUnits="userSpaceOnUse">
<stop stop-color="#7DCEFF"/>
<stop offset="1" stop-color="#C42348"/>
</linearGradient>
</defs>
</svg>
