<svg width="30" height="31" viewBox="0 0 30 31" fill="none" xmlns="http://www.w3.org/2000/svg">
<g id="icon-why1.svg" clip-path="url(#clip0_1_712)">
<path id="Vector" d="M9.11929 13.1959L14.9107 7.37161L20.7044 13.2006L24.0723 9.80983L14.9107 0.590088L5.74902 9.80746L9.11929 13.1959Z" fill="url(#paint0_linear_1_712)"/>
<path id="Vector_2" d="M9.11929 13.1959L14.9107 7.37161L20.7044 13.2006L24.0723 9.80983L14.9107 0.590088L5.74902 9.80746L9.11929 13.1959Z" fill="url(#paint1_linear_1_712)"/>
<path id="Vector_3" d="M-0.000976562 15.5914L3.36806 12.2019L6.73709 15.5914L3.36806 18.9809L-0.000976562 15.5914Z" fill="url(#paint2_linear_1_712)"/>
<path id="Vector_4" d="M-0.000976562 15.5914L3.36806 12.2019L6.73709 15.5914L3.36806 18.9809L-0.000976562 15.5914Z" fill="url(#paint3_linear_1_712)"/>
<path id="Vector_5" d="M9.11912 17.9843L14.9105 23.8109L20.7043 17.9819L24.0745 21.368L24.0722 21.3703L14.9105 30.5901L5.74885 21.3751L5.74414 21.3703L9.11912 17.9843Z" fill="url(#paint4_linear_1_712)"/>
<path id="Vector_6" d="M9.11912 17.9843L14.9105 23.8109L20.7043 17.9819L24.0745 21.368L24.0722 21.3703L14.9105 30.5901L5.74885 21.3751L5.74414 21.3703L9.11912 17.9843Z" fill="url(#paint5_linear_1_712)"/>
<path id="Vector_7" d="M23.0791 15.5924L26.4481 12.2029L29.8172 15.5924L26.4481 18.9819L23.0791 15.5924Z" fill="url(#paint6_linear_1_712)"/>
<path id="Vector_8" d="M23.0791 15.5924L26.4481 12.2029L29.8172 15.5924L26.4481 18.9819L23.0791 15.5924Z" fill="url(#paint7_linear_1_712)"/>
<path id="Vector_9" d="M18.3277 15.589L14.9104 12.1484L12.3833 14.6909L12.0912 14.9824L11.493 15.5842L11.4883 15.589L11.493 15.5961L14.9104 19.0319L18.3277 15.5913L18.3301 15.589H18.3277Z" fill="url(#paint8_linear_1_712)"/>
<path id="Vector_10" d="M18.3277 15.589L14.9104 12.1484L12.3833 14.6909L12.0912 14.9824L11.493 15.5842L11.4883 15.589L11.493 15.5961L14.9104 19.0319L18.3277 15.5913L18.3301 15.589H18.3277Z" fill="url(#paint9_linear_1_712)"/>
</g>
<defs>
<linearGradient id="paint0_linear_1_712" x1="25.7607" y1="-5.60978" x2="-3.66028" y2="13.7482" gradientUnits="userSpaceOnUse">
<stop stop-color="#7DCEFF"/>
<stop offset="1" stop-color="#C42348"/>
</linearGradient>
<linearGradient id="paint1_linear_1_712" x1="25.7607" y1="-5.60978" x2="-3.66028" y2="13.7482" gradientUnits="userSpaceOnUse">
<stop stop-color="#7DCEFF"/>
<stop offset="1" stop-color="#C42348"/>
</linearGradient>
<linearGradient id="paint2_linear_1_712" x1="7.35799" y1="8.86905" x2="-5.53329" y2="14.6713" gradientUnits="userSpaceOnUse">
<stop stop-color="#7DCEFF"/>
<stop offset="1" stop-color="#C42348"/>
</linearGradient>
<linearGradient id="paint3_linear_1_712" x1="7.35799" y1="8.86905" x2="-5.53329" y2="14.6713" gradientUnits="userSpaceOnUse">
<stop stop-color="#7DCEFF"/>
<stop offset="1" stop-color="#C42348"/>
</linearGradient>
<linearGradient id="paint4_linear_1_712" x1="25.7636" y1="11.7832" x2="-3.65869" y2="31.153" gradientUnits="userSpaceOnUse">
<stop stop-color="#7DCEFF"/>
<stop offset="1" stop-color="#C42348"/>
</linearGradient>
<linearGradient id="paint5_linear_1_712" x1="25.7636" y1="11.7832" x2="-3.65869" y2="31.153" gradientUnits="userSpaceOnUse">
<stop stop-color="#7DCEFF"/>
<stop offset="1" stop-color="#C42348"/>
</linearGradient>
<linearGradient id="paint6_linear_1_712" x1="30.4381" y1="8.87003" x2="17.5468" y2="14.6723" gradientUnits="userSpaceOnUse">
<stop stop-color="#7DCEFF"/>
<stop offset="1" stop-color="#C42348"/>
</linearGradient>
<linearGradient id="paint7_linear_1_712" x1="30.4381" y1="8.87003" x2="17.5468" y2="14.6723" gradientUnits="userSpaceOnUse">
<stop stop-color="#7DCEFF"/>
<stop offset="1" stop-color="#C42348"/>
</linearGradient>
<linearGradient id="paint8_linear_1_712" x1="18.9605" y1="8.76421" x2="5.87072" y2="14.6557" gradientUnits="userSpaceOnUse">
<stop stop-color="#7DCEFF"/>
<stop offset="1" stop-color="#C42348"/>
</linearGradient>
<linearGradient id="paint9_linear_1_712" x1="18.9605" y1="8.76421" x2="5.87072" y2="14.6557" gradientUnits="userSpaceOnUse">
<stop stop-color="#7DCEFF"/>
<stop offset="1" stop-color="#C42348"/>
</linearGradient>
<clipPath id="clip0_1_712">
<rect width="30" height="30" fill="white" transform="translate(0 0.590088)"/>
</clipPath>
</defs>
</svg>
