<svg width="31" height="31" viewBox="0 0 31 31" fill="none" xmlns="http://www.w3.org/2000/svg">
<g id="icon-why3.svg" clip-path="url(#clip0_1_742)">
<path id="Vector" d="M14.3111 2.01007C14.6777 1.26618 15.7384 1.26618 16.105 2.01007L19.6817 9.26716C19.8274 9.56272 20.1093 9.76755 20.4354 9.81476L28.3811 10.965C29.2004 11.0836 29.529 12.0894 28.9378 12.6689L23.1683 18.3231C22.9342 18.5526 22.8274 18.8823 22.8825 19.2055L24.244 27.187C24.3836 28.005 23.5234 28.6273 22.7901 28.2388L15.6762 24.4697C15.3834 24.3146 15.0327 24.3146 14.7399 24.4697L7.62596 28.2388C6.89264 28.6273 6.03249 28.005 6.17204 27.187L7.53331 19.2069C7.58858 18.8829 7.48111 18.5525 7.24584 18.323L1.45153 12.6705C0.858031 12.0915 1.18639 11.0833 2.00701 10.9649L9.9803 9.81456C10.3066 9.76748 10.5887 9.5626 10.7345 9.26689L14.3111 2.01007Z" stroke="url(#paint0_linear_1_742)" stroke-width="2" stroke-miterlimit="10"/>
<path id="Vector_2" d="M14.3111 2.01007C14.6777 1.26618 15.7384 1.26618 16.105 2.01007L19.6817 9.26716C19.8274 9.56272 20.1093 9.76755 20.4354 9.81476L28.3811 10.965C29.2004 11.0836 29.529 12.0894 28.9378 12.6689L23.1683 18.3231C22.9342 18.5526 22.8274 18.8823 22.8825 19.2055L24.244 27.187C24.3836 28.005 23.5234 28.6273 22.7901 28.2388L15.6762 24.4697C15.3834 24.3146 15.0327 24.3146 14.7399 24.4697L7.62596 28.2388C6.89264 28.6273 6.03249 28.005 6.17204 27.187L7.53331 19.2069C7.58858 18.8829 7.48111 18.5525 7.24584 18.323L1.45153 12.6705C0.858031 12.0915 1.18639 11.0833 2.00701 10.9649L9.9803 9.81456C10.3066 9.76748 10.5887 9.5626 10.7345 9.26689L14.3111 2.01007Z" stroke="url(#paint1_linear_1_742)" stroke-width="2" stroke-miterlimit="10"/>
</g>
<defs>
<linearGradient id="paint0_linear_1_742" x1="31.8274" y1="-11.7756" x2="-20.9956" y2="13.1974" gradientUnits="userSpaceOnUse">
<stop stop-color="#7DCEFF"/>
<stop offset="1" stop-color="#C42348"/>
</linearGradient>
<linearGradient id="paint1_linear_1_742" x1="31.8274" y1="-11.7756" x2="-20.9956" y2="13.1974" gradientUnits="userSpaceOnUse">
<stop stop-color="#7DCEFF"/>
<stop offset="1" stop-color="#C42348"/>
</linearGradient>
<clipPath id="clip0_1_742">
<rect width="31" height="30" fill="white" transform="translate(0 0.189941)"/>
</clipPath>
</defs>
</svg>
