<svg aria-hidden="true" style="position: absolute; width: 0; height: 0; overflow: hidden;" version="1.1" xmlns="http://www.w3.org/2000/svg" xmlns:xlink="http://www.w3.org/1999/xlink">
<defs>
<symbol id="icon-icon-why1svg" viewBox="0 0 31 32">
<path d="M9.413 13.622l5.978-6.012 5.981 6.017 3.477-3.5-9.457-9.517-9.457 9.515 3.479 3.498z"></path>
<path d="M9.413 13.622l5.978-6.012 5.981 6.017 3.477-3.5-9.457-9.517-9.457 9.515 3.479 3.498z"></path>
<path d="M-0.001 16.094l3.478-3.499 3.478 3.499-3.478 3.499-3.478-3.499z"></path>
<path d="M-0.001 16.094l3.478-3.499 3.478 3.499-3.478 3.499-3.478-3.499z"></path>
<path d="M9.413 18.564l5.978 6.015 5.981-6.017 3.479 3.495-0.002 0.002-9.457 9.517-9.462-9.517 3.484-3.495z"></path>
<path d="M9.413 18.564l5.978 6.015 5.981-6.017 3.479 3.495-0.002 0.002-9.457 9.517-9.462-9.517 3.484-3.495z"></path>
<path d="M23.824 16.095l3.478-3.499 3.478 3.499-3.478 3.499-3.478-3.499z"></path>
<path d="M23.824 16.095l3.478-3.499 3.478 3.499-3.478 3.499-3.478-3.499z"></path>
<path d="M18.919 16.092l-3.528-3.552-3.533 3.552 0.005 0.007 3.528 3.547 3.528-3.554z"></path>
<path d="M18.919 16.092l-3.528-3.552-3.533 3.552 0.005 0.007 3.528 3.547 3.528-3.554z"></path>
</symbol>
<symbol id="icon-icon-why2svg" viewBox="0 0 32 32">
<path stroke-linejoin="miter" stroke-linecap="butt" stroke-miterlimit="4" stroke-width="2.0645" d="M28.563 16.093c0-7.126-5.777-12.903-12.903-12.903s-12.903 5.777-12.903 12.903 5.777 12.903 12.903 12.903c7.126 0 12.903-5.777 12.903-12.903z"></path>
<path stroke-linejoin="miter" stroke-linecap="butt" stroke-miterlimit="4" stroke-width="2.0645" d="M28.563 16.093c0-7.126-5.777-12.903-12.903-12.903s-12.903 5.777-12.903 12.903 5.777 12.903 12.903 12.903c7.126 0 12.903-5.777 12.903-12.903z"></path>
<path stroke-linejoin="miter" stroke-linecap="butt" stroke-miterlimit="4" stroke-width="2.0645" d="M19.53 13.512c0 2.138-1.733 3.871-3.871 3.871s-3.871-1.733-3.871-3.871c0-2.138 1.733-3.871 3.871-3.871s3.871 1.733 3.871 3.871z"></path>
<path stroke-linejoin="miter" stroke-linecap="butt" stroke-miterlimit="4" stroke-width="2.0645" d="M19.53 13.512c0 2.138-1.733 3.871-3.871 3.871s-3.871-1.733-3.871-3.871c0-2.138 1.733-3.871 3.871-3.871s3.871 1.733 3.871 3.871z"></path>
<path stroke-linejoin="miter" stroke-linecap="round" stroke-miterlimit="4" stroke-width="2.0645" d="M23.401 26.416c0-2.85-3.466-5.161-7.742-5.161s-7.742 2.311-7.742 5.161"></path>
<path stroke-linejoin="miter" stroke-linecap="round" stroke-miterlimit="4" stroke-width="2.0645" d="M23.401 26.416c0-2.85-3.466-5.161-7.742-5.161s-7.742 2.311-7.742 5.161"></path>
</symbol>
<symbol id="icon-icon-why3svg" viewBox="0 0 32 32">
<path stroke-linejoin="miter" stroke-linecap="butt" stroke-miterlimit="10" stroke-width="2.0645" d="M14.773 2.075c0.378-0.768 1.473-0.768 1.852 0l3.692 7.491c0.15 0.305 0.441 0.517 0.778 0.565l8.202 1.187c0.846 0.122 1.185 1.161 0.575 1.759l-5.956 5.837c-0.242 0.237-0.352 0.577-0.295 0.911l1.405 8.239c0.144 0.844-0.744 1.487-1.501 1.086l-7.343-3.891c-0.302-0.16-0.664-0.16-0.966 0l-7.343 3.891c-0.757 0.401-1.645-0.241-1.501-1.086l1.405-8.238c0.057-0.334-0.054-0.675-0.297-0.912l-5.981-5.835c-0.613-0.598-0.274-1.638 0.573-1.761l8.23-1.187c0.337-0.049 0.628-0.26 0.779-0.565l3.692-7.491z"></path>
<path stroke-linejoin="miter" stroke-linecap="butt" stroke-miterlimit="10" stroke-width="2.0645" d="M14.773 2.075c0.378-0.768 1.473-0.768 1.852 0l3.692 7.491c0.15 0.305 0.441 0.517 0.778 0.565l8.202 1.187c0.846 0.122 1.185 1.161 0.575 1.759l-5.956 5.837c-0.242 0.237-0.352 0.577-0.295 0.911l1.405 8.239c0.144 0.844-0.744 1.487-1.501 1.086l-7.343-3.891c-0.302-0.16-0.664-0.16-0.966 0l-7.343 3.891c-0.757 0.401-1.645-0.241-1.501-1.086l1.405-8.238c0.057-0.334-0.054-0.675-0.297-0.912l-5.981-5.835c-0.613-0.598-0.274-1.638 0.573-1.761l8.23-1.187c0.337-0.049 0.628-0.26 0.779-0.565l3.692-7.491z"></path>
</symbol>
<symbol id="icon-icon-why4svg" viewBox="0 0 32 32">
<path stroke-linejoin="miter" stroke-linecap="butt" stroke-miterlimit="4" stroke-width="2.0645" d="M2.827 15.613c0 7.126 5.777 12.903 12.903 12.903 6.023 0 11.082-4.127 12.504-9.707 0.081-0.316-0.164-0.616-0.491-0.616h-4.385c-0.216 0-0.408 0.135-0.492 0.334-1.136 2.688-3.78 4.827-7.137 4.827-5.161 0-7.742-4.516-7.742-7.742 0-2.97 1.899-5.941 4.824-7.162 0.201-0.084 0.338-0.276 0.338-0.494v-4.358c0-0.326-0.3-0.571-0.616-0.491-5.58 1.422-9.707 6.481-9.707 12.504z"></path>
<path stroke-linejoin="miter" stroke-linecap="butt" stroke-miterlimit="4" stroke-width="2.0645" d="M2.827 15.613c0 7.126 5.777 12.903 12.903 12.903 6.023 0 11.082-4.127 12.504-9.707 0.081-0.316-0.164-0.616-0.491-0.616h-4.385c-0.216 0-0.408 0.135-0.492 0.334-1.136 2.688-3.78 4.827-7.137 4.827-5.161 0-7.742-4.516-7.742-7.742 0-2.97 1.899-5.941 4.824-7.162 0.201-0.084 0.338-0.276 0.338-0.494v-4.358c0-0.326-0.3-0.571-0.616-0.491-5.58 1.422-9.707 6.481-9.707 12.504z"></path>
<path stroke-linejoin="miter" stroke-linecap="butt" stroke-miterlimit="4" stroke-width="2.0645" d="M28.387 13.087c-1.012-5.1-5.030-9.117-10.129-10.13-0.31-0.061-0.591 0.181-0.591 0.497v4.289c0 0.232 0.156 0.435 0.377 0.507 2.29 0.755 4.283 2.588 5.070 5.046 0.072 0.223 0.275 0.382 0.51 0.382h4.267c0.316 0 0.558-0.281 0.497-0.591z"></path>
<path stroke-linejoin="miter" stroke-linecap="butt" stroke-miterlimit="4" stroke-width="2.0645" d="M28.387 13.087c-1.012-5.1-5.030-9.117-10.129-10.13-0.31-0.061-0.591 0.181-0.591 0.497v4.289c0 0.232 0.156 0.435 0.377 0.507 2.29 0.755 4.283 2.588 5.070 5.046 0.072 0.223 0.275 0.382 0.51 0.382h4.267c0.316 0 0.558-0.281 0.497-0.591z"></path>
</symbol>
<symbol id="icon-icon-why5svg" viewBox="0 0 36 32">
<path stroke-linejoin="miter" stroke-linecap="round" stroke-miterlimit="4" stroke-width="2.0645" d="M18.065 9.030l1.714-1.72c2.851-2.861 7.27-2.947 10.218-0.201 3.317 3.091 3.489 8.531 0.375 11.854l-3.477 3.709-7.522 6.972c-0.751 0.696-1.867 0.696-2.619 0l-2.859-2.648"></path>
<path stroke-linejoin="miter" stroke-linecap="round" stroke-miterlimit="4" stroke-width="2.0645" d="M18.065 9.030l1.714-1.72c2.851-2.861 7.27-2.947 10.218-0.201 3.317 3.091 3.489 8.531 0.375 11.854l-3.477 3.709-7.522 6.972c-0.751 0.696-1.867 0.696-2.619 0l-2.859-2.648"></path>
<path stroke-linejoin="miter" stroke-linecap="round" stroke-miterlimit="4" stroke-width="2.0645" d="M18.063 9.029l-1.714-1.72c-2.851-2.861-7.27-2.948-10.218-0.201-3.317 3.091-3.489 8.531-0.375 11.853l3.477 3.709 7.521 6.972c0.751 0.696 1.867 0.696 2.618 0.001l2.86-2.648"></path>
<path stroke-linejoin="miter" stroke-linecap="round" stroke-miterlimit="4" stroke-width="2.0645" d="M18.063 9.029l-1.714-1.72c-2.851-2.861-7.27-2.948-10.218-0.201-3.317 3.091-3.489 8.531-0.375 11.853l3.477 3.709 7.521 6.972c0.751 0.696 1.867 0.696 2.618 0.001l2.86-2.648"></path>
</symbol>
</defs>
</svg>
