<svg width="21" height="21" viewBox="0 0 21 21" fill="none" xmlns="http://www.w3.org/2000/svg">
<g id="icon-wh-instagram.svg" clip-path="url(#clip0_1_783)">
<path id="Vector" fill-rule="evenodd" clip-rule="evenodd" d="M14.77 2.38037H6.77C4.56086 2.38037 2.77 4.17123 2.77 6.38037V14.3804C2.77 16.5895 4.56086 18.3804 6.77 18.3804H14.77C16.9791 18.3804 18.77 16.5895 18.77 14.3804V6.38037C18.77 4.17123 16.9791 2.38037 14.77 2.38037ZM6.77 0.380371C3.45629 0.380371 0.769997 3.06666 0.769997 6.38037V14.3804C0.769997 17.6941 3.45629 20.3804 6.77 20.3804H14.77C18.0837 20.3804 20.77 17.6941 20.77 14.3804V6.38037C20.77 3.06666 18.0837 0.380371 14.77 0.380371H6.77Z" fill="white"/>
<path id="Vector_2" d="M15.77 6.38037C16.3223 6.38037 16.77 5.93265 16.77 5.38037C16.77 4.82809 16.3223 4.38037 15.77 4.38037C15.2177 4.38037 14.77 4.82809 14.77 5.38037C14.77 5.93265 15.2177 6.38037 15.77 6.38037Z" fill="white"/>
<path id="Vector_3" fill-rule="evenodd" clip-rule="evenodd" d="M15.77 10.3804C15.77 13.1418 13.5314 15.3804 10.77 15.3804C8.00858 15.3804 5.77 13.1418 5.77 10.3804C5.77 7.61895 8.00858 5.38037 10.77 5.38037C13.5314 5.38037 15.77 7.61895 15.77 10.3804ZM13.77 10.3804C13.77 12.0373 12.4269 13.3804 10.77 13.3804C9.11315 13.3804 7.77 12.0373 7.77 10.3804C7.77 8.72352 9.11315 7.38037 10.77 7.38037C12.4269 7.38037 13.77 8.72352 13.77 10.3804Z" fill="white"/>
</g>
<defs>
<clipPath id="clip0_1_783">
<rect width="20" height="20" fill="white" transform="translate(0.769997 0.380371)"/>
</clipPath>
</defs>
</svg>
