<svg width="30" height="21" viewBox="0 0 30 21" fill="none" xmlns="http://www.w3.org/2000/svg">
<g id="icon-wh-youtube.svg" clip-path="url(#clip0_1_774)">
<path id="Vector" fill-rule="evenodd" clip-rule="evenodd" d="M15 2.88037C10.7291 2.88037 7.21697 3.03132 4.76484 3.18317C3.68508 3.25003 2.83406 4.0828 2.74836 5.18221C2.61455 6.89871 2.5 8.83134 2.5 10.3804C2.5 11.9294 2.61455 13.8621 2.74836 15.5786C2.83406 16.678 3.68508 17.5107 4.76484 17.5776C7.21697 17.7294 10.7291 17.8804 15 17.8804C19.2709 17.8804 22.783 17.7294 25.2352 17.5776C26.3149 17.5107 27.1659 16.678 27.2516 15.5786C27.3854 13.8621 27.5 11.9294 27.5 10.3804C27.5 8.83134 27.3854 6.89871 27.2516 5.18221C27.1659 4.0828 26.3149 3.25003 25.2352 3.18317C22.783 3.03132 19.2709 2.88037 15 2.88037ZM4.61032 0.687952C2.27626 0.832489 0.437667 2.65645 0.255922 4.98792C0.120644 6.72329 0 8.7328 0 10.3804C0 12.028 0.120644 14.0375 0.255922 15.7728C0.437667 18.1043 2.27625 19.9283 4.61032 20.0728C7.10677 20.2274 10.6709 20.3804 15 20.3804C19.3291 20.3804 22.8932 20.2274 25.3897 20.0728C27.7237 19.9283 29.5623 18.1043 29.7441 15.7728C29.8794 14.0375 30 12.028 30 10.3804C30 8.7328 29.8794 6.72329 29.7441 4.98792C29.5623 2.65645 27.7237 0.832489 25.3897 0.687952C22.8932 0.533358 19.3291 0.380371 15 0.380371C10.6709 0.380371 7.10677 0.533358 4.61032 0.687952Z" fill="white"/>
<path id="Vector_2" d="M14.441 6.67834L18.4375 9.3427C19.1797 9.83747 19.1797 10.928 18.4375 11.4228L14.441 14.0872C13.6103 14.641 12.4976 14.0455 12.4976 13.0471V7.71841C12.4976 6.72004 13.6103 6.12455 14.441 6.67834Z" fill="white"/>
</g>
<defs>
<clipPath id="clip0_1_774">
<rect width="30" height="20" fill="white" transform="translate(0 0.380371)"/>
</clipPath>
</defs>
</svg>
