<svg width="29" height="25" viewBox="0 0 29 25" fill="none" xmlns="http://www.w3.org/2000/svg">
<g id="icon-wh-telegram.svg" clip-path="url(#clip0_1_793)">
<path id="Vector" d="M2.80149 8.94416L2.40244 9.57919M2.80149 8.94416C2.23388 9.43438 2.23355 9.434 2.23322 9.43361L2.23253 9.43281L2.23106 9.43109L2.2278 9.42726L2.22004 9.41797C2.21434 9.41106 2.20758 9.40271 2.19992 9.39296C2.18466 9.37353 2.16561 9.34827 2.14426 9.31771C2.10206 9.25733 2.04815 9.17237 1.99647 9.06744C1.89763 8.86675 1.77984 8.53732 1.82986 8.14547C1.94517 7.24235 2.79193 6.68697 4.15358 6.42232L4.15836 6.42135L4.18168 6.41662L4.27303 6.39809L4.62319 6.32705L5.90172 6.06756C6.97614 5.84942 8.44815 5.55043 10.0385 5.22699C13.2125 4.58146 16.8562 3.83886 18.7521 3.44715C19.4981 3.26584 21.0711 2.93687 22.4453 2.65546C23.1399 2.51322 23.7891 2.38207 24.2645 2.28649C24.5023 2.23869 24.6966 2.19977 24.8316 2.1728L24.9875 2.14167L25.0283 2.13354L25.0388 2.13146L25.0411 2.131L25.0421 2.1308L25.0449 2.13025L25.0549 2.12831L25.0845 2.12292C25.1084 2.11876 25.1404 2.11355 25.1794 2.10812C25.257 2.09731 25.3643 2.08529 25.4905 2.07921C25.7328 2.06753 26.0905 2.07521 26.45 2.18696C26.8188 2.30159 27.2442 2.54575 27.4916 3.0362C27.7305 3.50982 27.7342 4.07746 27.5708 4.69861C27.4602 5.20994 27.1228 6.17718 26.6975 7.34295C26.4743 7.95479 26.2158 8.6507 25.9394 9.39432C25.6757 10.1041 25.3958 10.8573 25.1151 11.6224L25.112 11.6308C24.2806 13.8159 23.4293 16.0959 22.7856 17.8302C22.4638 18.6971 22.194 19.4275 22.0047 19.941C21.91 20.1978 21.8355 20.4003 21.7846 20.5386L21.7265 20.6967L21.7123 20.7355L21.7108 20.74C21.7058 20.7555 21.6989 20.776 21.6901 20.8009C21.6726 20.8504 21.6473 20.9178 21.6137 20.9974C21.5473 21.1546 21.4441 21.3695 21.2975 21.5913C21.0217 22.0088 20.4842 22.6069 19.6212 22.6506C19.189 22.6725 18.7767 22.5318 18.4428 22.369C18.0991 22.2015 17.7725 21.9779 17.4919 21.7566C17.209 21.5335 16.9564 21.2997 16.76 21.0994C16.6175 20.9539 16.4774 20.7988 16.3786 20.6654C16.3228 20.6122 16.2568 20.5464 16.1927 20.4821C16.0713 20.3602 15.9099 20.1958 15.72 20.0004C15.3398 19.6091 14.8404 19.0884 14.3075 18.5239C13.2478 17.4015 12.0339 16.0833 11.368 15.2683L11.337 15.2304L11.3112 15.1888C11.1407 14.9136 10.9028 14.436 10.9177 13.8783C10.9344 13.254 11.2625 12.6748 11.9499 12.2691C12.5303 11.8943 13.1371 11.507 13.7487 11.1166C15.2006 10.1899 16.6788 9.24631 17.8921 8.41482L12.1051 10.9404L9.98675 11.865L9.39325 12.124L9.23689 12.1922L9.1968 12.2097L9.18665 12.2141L9.1841 12.2153M2.80149 8.94416L2.23388 9.43438L2.3073 9.51939L2.40244 9.57919M2.40244 9.57919L2.40401 9.58017L2.40834 9.58289L2.42491 9.59327L2.48832 9.6329C2.54351 9.66732 2.62384 9.71728 2.72505 9.77983C2.92741 9.90491 3.21349 10.0805 3.54904 10.283C4.21245 10.6832 5.07593 11.1926 5.86999 11.6247C6.74849 12.1764 7.52936 12.3501 8.12094 12.3696C8.41607 12.3793 8.65754 12.3504 8.83382 12.3157C8.92192 12.2984 8.9938 12.2796 9.04813 12.2633C9.07531 12.2552 9.09813 12.2477 9.11643 12.2414L9.1405 12.2328L9.14997 12.2292L9.15406 12.2276L9.15595 12.2269C9.15639 12.2267 9.15772 12.2262 8.88325 11.5282M8.88325 11.5282L9.1841 12.2153M8.88325 11.5282L9.15772 12.2262L9.17058 12.2212L9.1841 12.2153M19.7524 6.91972C19.7526 6.91966 19.7514 6.92288 19.748 6.92965C19.7504 6.92318 19.7522 6.91979 19.7524 6.91972Z" stroke="white" stroke-width="1.5"/>
</g>
<defs>
<clipPath id="clip0_1_793">
<rect width="28" height="24" fill="white" transform="translate(0.539993 0.380371)"/>
</clipPath>
</defs>
</svg>
