<svg aria-hidden="true" style="position: absolute; width: 0; height: 0; overflow: hidden;" version="1.1" xmlns="http://www.w3.org/2000/svg" xmlns:xlink="http://www.w3.org/1999/xlink">
<defs>
<symbol id="icon-light" viewBox="0 0 62 32">
<path d="M0.189 0.063c-0.102 0.078-0.189 0.247-0.189 0.364 0 0.112 0.339 0.427 0.713 0.669 0.233 0.15 0.286 0.165 0.63 0.165 0.339 0 0.402 0.015 0.591 0.145 0.121 0.082 0.267 0.233 0.33 0.339s0.213 0.247 0.33 0.315c0.175 0.107 0.213 0.155 0.242 0.315 0.044 0.262 0.199 0.48 0.485 0.669 0.145 0.097 0.291 0.252 0.369 0.393 0.073 0.126 0.223 0.291 0.335 0.369 0.354 0.242 0.436 0.383 0.436 0.708 0 0.344 0.097 0.606 0.252 0.679 0.063 0.024 0.155 0.131 0.208 0.228 0.073 0.131 0.155 0.199 0.315 0.257 0.199 0.073 0.233 0.107 0.398 0.441 0.267 0.533 0.713 0.945 1.202 1.101 0.354 0.112 0.63 0.32 0.63 0.475 0 0.107 0.296 0.398 0.587 0.572 0.33 0.204 0.431 0.33 0.431 0.533 0 0.179 0.238 0.572 0.402 0.664 0.063 0.034 0.213 0.136 0.325 0.218 0.184 0.141 0.242 0.16 0.524 0.16 0.247 0 0.378 0.029 0.635 0.15 0.388 0.184 0.47 0.257 0.596 0.504 0.121 0.242 0.276 0.412 0.373 0.412 0.044 0 0.194 0.049 0.335 0.107 0.252 0.107 0.262 0.107 0.582 0.024 0.436-0.111 0.475-0.107 0.756 0.087 0.238 0.16 0.267 0.165 0.732 0.179 0.431 0.010 0.509 0 0.659-0.097 0.15-0.092 0.184-0.097 0.267-0.039 0.155 0.107 0.412 0.136 0.674 0.068 0.209-0.053 0.276-0.053 0.509 0.019 0.606 0.189 0.742 0.199 1.105 0.092 0.553-0.165 0.737-0.121 0.737 0.184 0 0.141 0.194 0.247 0.504 0.281 0.189 0.019 0.276 0.053 0.296 0.107 0.015 0.044 0.145 0.204 0.286 0.359l0.262 0.281 0.238-0.029c0.126-0.019 0.252-0.053 0.276-0.078 0.024-0.019 0.087-0.015 0.141 0.010 0.068 0.039 0.155 0.034 0.31-0.010 0.204-0.053 0.238-0.049 0.431 0.053 0.199 0.111 0.228 0.111 0.495 0.058 0.509-0.107 0.621-0.063 0.446 0.175-0.131 0.175-0.073 0.359 0.155 0.475 0.087 0.044 0.194 0.121 0.238 0.175 0.058 0.078 0.17 0.102 0.577 0.136 0.305 0.029 0.577 0.029 0.698 0 0.111-0.024 0.276-0.049 0.369-0.049 0.097 0 0.194-0.019 0.223-0.049 0.068-0.068 0.49 0.344 0.659 0.64 0.165 0.281 0.335 0.393 0.785 0.504 0.47 0.111 0.795 0.281 0.999 0.514 0.145 0.16 0.213 0.199 0.402 0.218 0.233 0.029 0.233 0.029 0.398 0.354 0.179 0.359 0.301 0.441 0.63 0.432 0.107 0 0.344 0.010 0.524 0.024 0.281 0.024 0.349 0.015 0.446-0.058 0.097-0.078 0.155-0.087 0.412-0.049 0.194 0.024 0.33 0.019 0.393-0.015 0.145-0.073 0.727 0.17 0.989 0.417 0.111 0.107 0.271 0.228 0.349 0.271 0.082 0.044 0.238 0.213 0.349 0.378 0.228 0.335 0.427 0.461 0.635 0.417 0.145-0.034 0.155-0.024 0.606 0.388 0.058 0.058 0.145 0.209 0.194 0.339 0.121 0.33 0.233 0.441 0.64 0.635 0.378 0.184 0.596 0.393 0.596 0.582 0 0.257 0.305 0.407 0.669 0.32 0.121-0.024 0.247-0.039 0.281-0.024 0.034 0.010 0.111 0.145 0.17 0.296 0.063 0.16 0.223 0.393 0.368 0.553 0.15 0.165 0.272 0.349 0.305 0.465 0.058 0.228 0.31 0.47 0.558 0.538 0.092 0.024 0.238 0.102 0.32 0.17s0.199 0.126 0.262 0.126c0.213 0 0.364 0.107 0.465 0.335 0.053 0.121 0.136 0.267 0.189 0.32 0.048 0.053 0.107 0.155 0.121 0.233 0.024 0.092 0.073 0.141 0.165 0.155 0.068 0.015 0.189 0.058 0.262 0.097 0.078 0.039 0.233 0.073 0.344 0.073 0.213 0 0.32 0.063 0.32 0.194 0 0.044 0.063 0.165 0.141 0.271 0.184 0.247 0.213 0.383 0.15 0.664-0.044 0.204-0.034 0.262 0.053 0.475 0.092 0.209 0.097 0.252 0.039 0.291-0.039 0.024-0.092 0.044-0.121 0.044s-0.092 0.044-0.136 0.092c-0.082 0.092-0.082 0.107 0.039 0.364 0.068 0.145 0.126 0.33 0.126 0.407 0 0.204 0.165 0.393 0.378 0.427 0.247 0.039 0.32 0.102 0.412 0.378 0.092 0.262 0.078 0.32-0.044 0.218-0.073-0.058-0.078-0.053-0.044 0.053 0.053 0.175 0.267 0.587 0.339 0.664 0.034 0.034 0.053 0.107 0.039 0.16-0.015 0.058 0 0.102 0.039 0.111s0.145 0.044 0.238 0.073c0.155 0.049 0.16 0.049 0.078-0.015-0.053-0.039-0.15-0.073-0.213-0.073-0.097 0-0.111-0.019-0.087-0.116 0.019-0.073 0-0.136-0.044-0.175-0.063-0.053-0.267-0.451-0.267-0.524 0-0.015 0.068 0.034 0.145 0.111 0.082 0.078 0.145 0.111 0.145 0.078 0-0.039 0.058-0.019 0.16 0.049 0.126 0.092 0.111 0.068-0.063-0.107-0.141-0.136-0.233-0.199-0.257-0.165-0.029 0.029-0.034 0.015-0.019-0.029 0.058-0.184-0.378-0.989-0.441-0.815-0.034 0.082-0.238 0.044-0.339-0.068-0.068-0.073-0.107-0.175-0.107-0.286 0-0.092-0.044-0.271-0.102-0.398-0.102-0.238-0.092-0.32 0.048-0.32 0.199 0 0.267 0.116 0.276 0.48 0.005 0.325 0.068 0.49 0.179 0.49 0.024 0 0.010-0.044-0.039-0.097-0.073-0.078-0.087-0.175-0.087-0.427 0.005-0.296-0.005-0.335-0.121-0.431-0.073-0.063-0.107-0.111-0.078-0.111 0.107 0 0.116-0.15 0.019-0.325-0.078-0.145-0.087-0.238-0.063-0.548 0.019-0.247 0.010-0.407-0.029-0.48-0.087-0.16-0.039-0.17 0.131-0.029 0.078 0.068 0.189 0.121 0.238 0.121 0.107 0 0.257 0.141 0.262 0.247 0 0.039 0.073 0.165 0.16 0.286 0.141 0.194 0.184 0.223 0.383 0.242 0.209 0.024 0.238 0.044 0.33 0.218 0.058 0.107 0.131 0.228 0.17 0.271s0.063 0.165 0.058 0.271c-0.005 0.111 0.029 0.242 0.073 0.31 0.048 0.063 0.082 0.087 0.082 0.053 0-0.078 0.301-0.078 0.378 0 0.034 0.034 0.058 0.107 0.058 0.165s0.053 0.228 0.121 0.378c0.092 0.209 0.16 0.291 0.272 0.339 0.092 0.039 0.179 0.126 0.218 0.213 0.039 0.102 0.107 0.165 0.199 0.184 0.194 0.049 0.393 0.199 0.427 0.325 0.019 0.058 0.116 0.184 0.213 0.281s0.262 0.286 0.368 0.427c0.107 0.136 0.228 0.257 0.267 0.271 0.039 0.019 0.005-0.039-0.073-0.126-0.111-0.116-0.121-0.145-0.048-0.116 0.053 0.024 0.17 0.044 0.257 0.044 0.199-0.005 0.194 0.063-0.015 0.286-0.17 0.179-0.209 0.296-0.121 0.349 0.029 0.015 0.053 0.078 0.053 0.136 0.005 0.078 0.015 0.082 0.029 0.024 0.010-0.044-0.005-0.131-0.034-0.189-0.048-0.092-0.034-0.126 0.116-0.281 0.097-0.097 0.175-0.209 0.179-0.247 0-0.049 0.019-0.039 0.048 0.024 0.039 0.087 0.039 0.087 0.029-0.024-0.010-0.145-0.286-0.301-0.461-0.262-0.087 0.019-0.165-0.029-0.354-0.218-0.131-0.131-0.238-0.223-0.238-0.209-0.005 0.019-0.029-0.024-0.063-0.097-0.082-0.184-0.465-0.635-0.645-0.761-0.087-0.058-0.213-0.126-0.291-0.145-0.073-0.019-0.15-0.068-0.17-0.107-0.126-0.238-0.189-0.417-0.189-0.533 0-0.17-0.116-0.286-0.291-0.286-0.247 0-0.291-0.039-0.262-0.238 0.024-0.145 0-0.209-0.126-0.383-0.082-0.116-0.141-0.238-0.131-0.267 0.010-0.034-0.010-0.082-0.044-0.107-0.029-0.029-0.073-0.097-0.092-0.16l-0.029-0.107 0.16 0.097c0.087 0.049 0.228 0.131 0.305 0.175 0.082 0.044 0.218 0.131 0.305 0.199 0.141 0.107 0.155 0.136 0.126 0.281-0.024 0.145-0.010 0.175 0.194 0.344 0.126 0.102 0.247 0.257 0.276 0.349 0.029 0.087 0.063 0.15 0.078 0.136s0.092 0.010 0.17 0.049c0.097 0.049 0.005-0.068-0.272-0.344-0.228-0.233-0.417-0.451-0.417-0.48 0-0.141 0.111-0.175 0.262-0.082 0.107 0.063 0.286 0.097 0.596 0.116 0.242 0.015 0.495 0.053 0.558 0.082 0.107 0.058 0.107 0.058 0.029-0.029-0.068-0.068-0.189-0.092-0.567-0.116-0.436-0.024-0.495-0.044-0.659-0.17-0.097-0.082-0.218-0.165-0.272-0.194-0.048-0.024-0.092-0.082-0.092-0.121s-0.053-0.189-0.121-0.335c-0.068-0.145-0.111-0.271-0.097-0.286s0.078 0 0.141 0.029c0.116 0.053 0.175 0.034 0.175-0.049 0-0.024-0.019-0.029-0.048-0.015-0.024 0.015-0.048 0.005-0.048-0.024s0.029-0.049 0.063-0.044c0.126 0.015 0.228-0.005 0.228-0.053 0-0.029-0.048-0.049-0.107-0.049-0.17 0-0.33-0.053-0.33-0.107 0-0.034 0.087-0.044 0.223-0.024 0.204 0.019 0.276 0.068 0.325 0.194 0.005 0.024 0.087 0.019 0.179-0.005 0.165-0.049 0.165-0.049 0.034-0.053-0.078-0.005-0.194-0.049-0.262-0.102-0.087-0.068-0.199-0.097-0.364-0.097s-0.276-0.029-0.378-0.107c-0.078-0.058-0.155-0.092-0.175-0.078-0.015 0.019 0.019 0.044 0.073 0.063 0.141 0.044 0.126 0.155-0.024 0.189-0.17 0.044-0.252-0.034-0.16-0.145 0.063-0.078 0.058-0.078-0.024-0.034-0.107 0.058-0.31 0.005-0.514-0.131-0.068-0.044-0.175-0.097-0.242-0.111-0.141-0.034-0.325-0.16-0.291-0.199 0.044-0.039 0.475-0.039 0.8 0 0.223 0.024 0.339 0.073 0.509 0.199 0.238 0.179 0.189 0.179 0.887 0.073 0.15-0.019 0.305-0.024 0.339 0 0.029 0.019 0.175 0.039 0.315 0.039 0.136 0 0.252 0.019 0.252 0.039 0 0.111 0.209 0.252 0.368 0.252 0.136 0 0.209 0.044 0.383 0.223 0.194 0.199 0.233 0.218 0.368 0.189 0.131-0.029 0.175-0.010 0.354 0.16 0.107 0.107 0.252 0.204 0.32 0.218 0.194 0.044 0.698 0.233 0.766 0.286 0.029 0.029 0.058 0.121 0.058 0.213 0 0.267 0.078 0.402 0.436 0.771 0.053 0.058 0.097 0.155 0.097 0.228 0 0.092 0.044 0.15 0.17 0.228 0.199 0.116 0.32 0.354 0.281 0.548-0.019 0.097 0.010 0.175 0.102 0.281 0.068 0.087 0.126 0.199 0.126 0.262 0 0.175 0.131 0.305 0.364 0.364 0.218 0.053 0.233 0.073 0.276 0.364 0.010 0.049 0.048 0.107 0.087 0.126s0.121 0.058 0.179 0.087c0.063 0.034 0.17 0.058 0.242 0.058 0.087 0 0.199 0.063 0.335 0.199 0.189 0.184 0.213 0.194 0.344 0.145 0.136-0.049 0.136-0.049 0.010-0.039-0.082 0.005-0.199-0.058-0.364-0.199-0.131-0.111-0.267-0.194-0.305-0.179-0.034 0.015-0.15-0.010-0.252-0.058-0.16-0.068-0.189-0.102-0.189-0.233 0-0.165-0.126-0.315-0.262-0.315-0.102 0-0.281-0.092-0.33-0.165-0.068-0.102-0.039-0.175 0.073-0.175 0.058 0 0.155-0.034 0.213-0.073 0.097-0.068 0.121-0.058 0.364 0.102 0.141 0.097 0.272 0.199 0.291 0.228 0.029 0.044 0.039 0.044 0.039 0 0-0.058-0.063-0.111-0.407-0.335-0.17-0.111-0.194-0.116-0.301-0.044-0.17 0.111-0.272 0.087-0.417-0.092-0.097-0.121-0.136-0.223-0.136-0.369 0-0.194-0.111-0.485-0.184-0.485-0.097 0-0.252-0.209-0.252-0.335 0-0.092-0.039-0.165-0.116-0.213-0.204-0.136-0.417-0.514-0.417-0.737 0-0.116-0.029-0.228-0.063-0.257-0.063-0.053-0.664-0.291-0.844-0.335-0.131-0.029-0.145-0.102-0.024-0.141 0.044-0.015 0.155-0.058 0.247-0.097 0.16-0.073 0.16-0.073 0.33 0.126 0.092 0.107 0.213 0.194 0.262 0.194 0.242 0 0.407 0.228 0.543 0.737 0.058 0.218 0.126 0.33 0.315 0.524 0.233 0.238 0.252 0.242 0.441 0.213 0.194-0.029 0.209-0.024 0.402 0.194 0.175 0.194 0.228 0.223 0.373 0.213l0.175-0.005-0.155-0.019c-0.097-0.015-0.179-0.058-0.213-0.121-0.039-0.068-0.039-0.087 0-0.068 0.029 0.019 0.116 0 0.194-0.044 0.233-0.116 0.373-0.097 0.441 0.073 0.078 0.194 0.111 0.16 0.044-0.039-0.029-0.087-0.087-0.16-0.131-0.16-0.15-0.010-0.276 0.015-0.335 0.063-0.044 0.034-0.082 0.034-0.131-0.005-0.053-0.044-0.073-0.044-0.092 0.005-0.015 0.049-0.044 0.049-0.111 0.010-0.053-0.029-0.092-0.078-0.092-0.107s-0.019-0.068-0.044-0.092c-0.024-0.024-0.029-0.015-0.010 0.019 0.024 0.039 0.005 0.063-0.044 0.063-0.053 0-0.073-0.024-0.058-0.068 0.019-0.049 0.005-0.063-0.044-0.044-0.039 0.015-0.102 0-0.141-0.034-0.063-0.053-0.068-0.049-0.048 0.015 0.048 0.111-0.053 0.141-0.213 0.058-0.141-0.073-0.291-0.262-0.213-0.271 0.116-0.015 0.383 0.019 0.422 0.053 0.024 0.024 0.073 0.029 0.111 0.015 0.034-0.015 0.116 0.015 0.175 0.063l0.107 0.092-0.092-0.107c-0.092-0.111-0.17-0.136-0.616-0.184l-0.267-0.029-0.078-0.252c-0.102-0.335-0.058-0.388 0.296-0.364 0.194 0.010 0.305-0.010 0.383-0.068 0.136-0.092 0.247-0.068 0.548 0.116 0.121 0.073 0.267 0.136 0.325 0.136 0.053 0 0.194 0.078 0.305 0.175 0.296 0.242 0.393 0.276 0.64 0.189 0.276-0.097 0.339-0.092 0.461 0.039 0.092 0.097 0.102 0.15 0.078 0.339-0.029 0.204-0.024 0.228 0.082 0.267 0.175 0.068 0.718 0.165 0.766 0.136 0.024-0.015 0.078 0.024 0.121 0.092 0.058 0.087 0.126 0.121 0.228 0.121 0.131 0 0.16 0.029 0.262 0.267 0.092 0.204 0.16 0.286 0.291 0.349 0.17 0.082 0.17 0.078 0.31-0.053 0.175-0.165 0.31-0.141 0.427 0.082 0.039 0.087 0.116 0.209 0.165 0.271 0.053 0.063 0.092 0.155 0.092 0.204 0 0.044 0.058 0.15 0.126 0.233 0.111 0.131 0.145 0.145 0.305 0.121 0.141-0.024 0.194-0.010 0.267 0.073 0.048 0.053 0.107 0.087 0.131 0.078 0.019-0.015 0.155 0.024 0.296 0.092 0.141 0.063 0.32 0.136 0.398 0.155 0.092 0.029 0.155 0.087 0.175 0.165 0.078 0.276 0.301 0.674 0.398 0.708 0.058 0.015 0.209 0.131 0.339 0.252 0.213 0.199 0.247 0.213 0.354 0.165 0.126-0.058 0.121-0.068 0.301 0.257 0.029 0.053 0.087 0.092 0.136 0.082s0.179 0.034 0.296 0.097c0.184 0.097 0.233 0.102 0.359 0.053 0.15-0.058 0.155-0.053 0.247 0.145 0.048 0.111 0.092 0.271 0.092 0.354 0 0.204 0.092 0.233 0.349 0.116 0.116-0.053 0.175-0.097 0.136-0.092-0.039 0-0.126 0.029-0.189 0.063-0.16 0.087-0.247 0.049-0.247-0.116 0-0.078-0.019-0.194-0.044-0.257-0.039-0.102-0.029-0.126 0.058-0.15 0.218-0.058 0.446-0.029 0.504 0.063 0.029 0.049 0.126 0.102 0.209 0.121 0.111 0.019 0.17 0.068 0.209 0.17 0.039 0.107 0.092 0.15 0.218 0.175 0.121 0.024 0.175 0.063 0.209 0.17 0.029 0.078 0.102 0.175 0.17 0.218 0.078 0.049 0.116 0.121 0.116 0.213 0 0.16 0.16 0.548 0.262 0.63 0.048 0.044 0.039-0.010-0.029-0.15-0.058-0.116-0.111-0.301-0.126-0.417-0.019-0.16-0.058-0.238-0.16-0.315-0.078-0.053-0.141-0.136-0.141-0.179 0-0.107-0.136-0.223-0.301-0.262-0.087-0.019-0.136-0.063-0.136-0.121 0-0.111-0.078-0.179-0.252-0.223-0.082-0.019-0.145-0.082-0.179-0.17-0.068-0.199-0.213-0.262-0.509-0.218-0.587 0.078-0.64 0.078-0.887-0.015-0.179-0.063-0.291-0.141-0.368-0.257-0.097-0.145-0.136-0.165-0.291-0.15-0.15 0.010-0.189-0.005-0.233-0.102-0.029-0.063-0.126-0.15-0.213-0.194-0.213-0.102-0.393-0.344-0.461-0.63-0.034-0.126-0.078-0.242-0.102-0.257-0.048-0.029-0.058-0.228-0.019-0.271 0.015-0.015 0.141-0.005 0.281 0.019 0.175 0.034 0.301 0.034 0.402-0.005 0.242-0.087 0.388-0.005 0.427 0.238 0.019 0.116 0.082 0.252 0.15 0.32 0.131 0.131 0.315 0.155 0.315 0.039 0-0.039 0.063-0.097 0.145-0.121 0.155-0.058 0.155-0.141 0-0.141-0.058 0-0.126 0.063-0.17 0.145-0.092 0.175-0.121 0.179-0.257 0.034-0.136-0.141-0.136-0.175 0.005-0.15l0.107 0.024-0.107-0.049c-0.063-0.029-0.111-0.082-0.111-0.126 0-0.092 0.053-0.092 0.17-0.005 0.063 0.049 0.126 0.053 0.242 0.015 0.121-0.034 0.194-0.024 0.359 0.063 0.15 0.073 0.223 0.092 0.262 0.053 0.029-0.029 0.107-0.053 0.175-0.058 0.073 0 0.097-0.015 0.068-0.029-0.082-0.029-0.078-0.111 0.005-0.111 0.034 0 0.102 0.053 0.145 0.121 0.097 0.145 0.16 0.15 0.32 0.019l0.121-0.097-0.155 0.078c-0.15 0.073-0.16 0.068-0.238-0.049-0.097-0.15-0.209-0.155-0.378-0.019-0.131 0.102-0.136 0.102-0.32 0.019-0.111-0.049-0.252-0.073-0.344-0.063-0.16 0.024-0.364-0.053-0.572-0.213-0.131-0.097-0.296-0.116-0.378-0.034-0.039 0.039-0.145 0.039-0.383 0-0.204-0.029-0.349-0.034-0.383-0.005-0.058 0.049-0.33-0.276-0.48-0.572-0.044-0.087-0.136-0.184-0.199-0.213-0.126-0.058-0.141-0.092-0.092-0.271 0.039-0.136 0.092-0.136 0.204-0.005 0.145 0.179 0.543 0.567 0.543 0.529 0-0.019-0.15-0.194-0.339-0.383-0.189-0.194-0.339-0.369-0.339-0.393s0.034-0.078 0.078-0.116c0.068-0.073 0.092-0.068 0.252 0.058 0.218 0.175 0.495 0.315 0.533 0.281 0.015-0.015 0.005-0.029-0.015-0.029-0.024 0 0-0.034 0.053-0.073 0.087-0.068 0.082-0.068-0.068-0.039-0.131 0.024-0.204-0.005-0.422-0.155-0.15-0.102-0.296-0.17-0.339-0.155-0.039 0.019-0.107 0.16-0.155 0.325-0.048 0.16-0.111 0.291-0.141 0.291s-0.111-0.049-0.184-0.102c-0.107-0.082-0.17-0.097-0.325-0.073-0.291 0.049-0.698-0.155-0.776-0.393-0.053-0.17-0.053-0.17-0.286-0.141-0.175 0.024-0.242 0.015-0.291-0.044-0.034-0.039-0.131-0.073-0.218-0.073-0.155 0-0.16-0.005-0.136-0.179 0.019-0.175 0.010-0.199-0.242-0.412l-0.262-0.223-0.296 0.024c-0.267 0.024-0.31 0.015-0.446-0.102-0.175-0.145-0.301-0.155-0.548-0.053-0.097 0.039-0.213 0.058-0.262 0.044-0.078-0.029-0.402-0.335-0.402-0.383 0-0.010 0.082-0.063 0.179-0.126 0.102-0.058 0.228-0.145 0.281-0.194 0.111-0.092 0.451-0.136 1.285-0.17 0.305-0.010 0.664-0.044 0.79-0.068 0.126-0.029 0.305-0.049 0.393-0.049 0.092 0 0.189-0.034 0.228-0.082 0.039-0.044 0.209-0.145 0.383-0.223s0.398-0.218 0.495-0.31l0.179-0.175 0.451 0.058c0.247 0.034 0.456 0.068 0.465 0.078 0.044 0.044 0.286-0.121 0.349-0.238 0.044-0.087 0.107-0.126 0.189-0.126 0.073 0 0.175-0.034 0.233-0.073 0.082-0.058 0.175-0.068 0.412-0.039 0.829 0.092 1.435-0.005 1.653-0.262l0.136-0.16 0.456 0.005c0.247 0.005 0.475-0.010 0.504-0.024 0.029-0.019 0.175-0.010 0.325 0.019 0.262 0.053 0.31 0.087 0.756 0.495 0.111 0.102 0.218 0.184 0.238 0.184s0.068 0.029 0.102 0.063c0.034 0.034 0.238 0.107 0.451 0.17 0.499 0.136 1.319 0.121 1.644-0.039 0.121-0.058 0.373-0.111 0.65-0.141 0.325-0.029 0.495-0.068 0.582-0.136 0.213-0.16 0.364-0.228 0.567-0.262l0.194-0.029-0.223-0.010c-0.17-0.005-0.272 0.029-0.461 0.15-0.209 0.131-0.301 0.155-0.747 0.194-0.32 0.029-0.553 0.073-0.625 0.121-0.17 0.111-1.261 0.107-1.421-0.005-0.058-0.044-0.15-0.078-0.199-0.078-0.16 0-0.446-0.184-0.781-0.504-0.189-0.179-0.378-0.32-0.436-0.32-0.058-0.005-0.155-0.034-0.218-0.068-0.087-0.049-0.228-0.058-0.49-0.044-0.233 0.019-0.441 0.005-0.553-0.034-0.155-0.049-0.194-0.049-0.267 0.019-0.048 0.044-0.121 0.078-0.165 0.078s-0.126 0.063-0.184 0.145c-0.082 0.111-0.16 0.15-0.33 0.17-0.121 0.015-0.315 0.049-0.427 0.073-0.145 0.034-0.242 0.029-0.364-0.019-0.087-0.034-0.189-0.053-0.228-0.039-0.034 0.010-0.145-0.005-0.247-0.039-0.165-0.053-0.204-0.049-0.354 0.044-0.092 0.053-0.228 0.102-0.305 0.102-0.17 0-0.213 0.029-0.33 0.209-0.068 0.111-0.107 0.131-0.189 0.107-0.058-0.019-0.184-0.044-0.276-0.049-0.092-0.010-0.247-0.034-0.344-0.049-0.204-0.039-0.529 0.102-0.65 0.281-0.039 0.063-0.184 0.145-0.349 0.204-0.155 0.049-0.305 0.116-0.335 0.15-0.116 0.141-0.354 0.179-1.139 0.189-0.446 0.005-0.839 0.029-0.873 0.053-0.039 0.024-0.189 0.044-0.335 0.044-0.233 0-0.301 0.024-0.558 0.209-0.165 0.111-0.31 0.204-0.33 0.204s-0.034-0.078-0.034-0.17c0-0.223-0.16-0.388-0.441-0.461-0.402-0.102-0.625-0.204-0.722-0.33-0.213-0.291-0.485-0.446-0.819-0.48-0.15-0.015-0.315-0.053-0.368-0.082s-0.184-0.078-0.291-0.102c-0.175-0.049-0.209-0.082-0.349-0.373-0.145-0.301-0.17-0.33-0.364-0.378-0.116-0.034-0.276-0.102-0.364-0.15-0.097-0.063-0.194-0.087-0.272-0.063-0.087 0.019-0.189-0.010-0.339-0.097-0.155-0.092-0.281-0.126-0.461-0.126-0.223 0-0.272-0.019-0.49-0.213-0.189-0.165-0.291-0.218-0.475-0.242-0.47-0.063-1.023 0.116-1.396 0.461-0.218 0.204-0.233 0.209-0.572 0.213-0.267 0.005-0.412 0.039-0.611 0.136-0.145 0.068-0.286 0.111-0.315 0.092-0.029-0.015-0.286-0.034-0.577-0.039-0.514-0.015-0.519-0.015-0.64-0.16-0.073-0.082-0.242-0.189-0.402-0.247-0.15-0.058-0.364-0.165-0.47-0.242-0.111-0.073-0.262-0.145-0.339-0.155-0.126-0.015-0.165-0.058-0.291-0.315-0.078-0.165-0.238-0.393-0.344-0.509-0.111-0.116-0.262-0.33-0.33-0.48-0.218-0.47-0.412-0.606-0.81-0.567-0.199 0.019-0.204 0.015-0.398-0.286-0.175-0.271-0.228-0.32-0.596-0.504-0.373-0.184-0.499-0.286-0.349-0.286 0.034 0 0.175-0.126 0.31-0.276l0.247-0.281 0.378 0.189c0.529 0.262 1.052 0.388 1.28 0.315 0.048-0.015 0.082 0.034 0.107 0.141 0.019 0.092 0.058 0.189 0.087 0.218s0.053 0.126 0.053 0.209c0 0.179 0.17 0.349 0.402 0.393 0.078 0.015 0.17 0.078 0.209 0.141 0.073 0.107 0.131 0.131 0.548 0.194 0.16 0.024 0.257 0.073 0.359 0.189 0.136 0.15 0.15 0.155 0.436 0.136 0.276-0.024 0.31-0.015 0.417 0.102 0.068 0.073 0.175 0.126 0.242 0.126 0.068 0.005 0.179 0.034 0.242 0.068 0.097 0.053 0.15 0.053 0.344-0.010 0.218-0.068 0.242-0.068 0.65 0.063 0.412 0.131 0.427 0.131 0.718 0.063l0.301-0.073 0.315 0.17c0.175 0.092 0.383 0.228 0.456 0.296 0.126 0.116 0.17 0.126 0.616 0.126 0.436 0 0.49 0.010 0.601 0.116 0.068 0.063 0.136 0.155 0.15 0.199 0.034 0.107 0.354 0.364 0.509 0.412 0.082 0.019 0.044-0.019-0.107-0.131-0.145-0.097-0.272-0.238-0.33-0.364-0.102-0.213-0.431-0.441-0.543-0.373-0.029 0.019-0.194 0.029-0.368 0.024-0.276-0.010-0.33-0.024-0.441-0.145-0.073-0.078-0.291-0.218-0.49-0.32l-0.364-0.184-0.398 0.063c-0.398 0.063-0.398 0.063-0.587-0.063-0.179-0.126-0.199-0.131-0.543-0.087-0.281 0.039-0.383 0.034-0.49-0.024-0.078-0.039-0.175-0.068-0.218-0.068-0.048 0-0.141-0.049-0.204-0.111-0.097-0.087-0.165-0.107-0.427-0.102-0.233 0.005-0.31-0.015-0.31-0.063 0-0.102-0.286-0.247-0.562-0.286-0.199-0.024-0.281-0.063-0.378-0.17-0.073-0.078-0.17-0.141-0.218-0.141-0.175 0-0.242-0.058-0.276-0.233-0.015-0.102-0.058-0.223-0.092-0.281-0.034-0.053-0.073-0.199-0.082-0.315l-0.015-0.213 0.223 0.015c0.17 0.010 0.262-0.015 0.398-0.111 0.305-0.204 0.456-0.267 0.65-0.267 0.102-0.005 0.238-0.034 0.301-0.068 0.15-0.082 0.398 0.010 0.572 0.213 0.073 0.092 0.184 0.155 0.296 0.175 0.097 0.015 0.238 0.068 0.31 0.121 0.175 0.121 0.543 0.121 0.79-0.005 0.242-0.121 0.267-0.121 0.267 0.015 0 0.155 0.131 0.267 0.339 0.286 0.155 0.015 0.179 0.039 0.267 0.257 0.053 0.136 0.189 0.339 0.301 0.456 0.184 0.194 0.213 0.209 0.344 0.16 0.116-0.039 0.15-0.034 0.194 0.039 0.082 0.131 0.475 0.305 0.616 0.271 0.145-0.039 0.267-0.257 0.267-0.49 0-0.199 0.082-0.223 0.223-0.068 0.073 0.078 0.126 0.097 0.267 0.073 0.209-0.034 0.436 0.063 0.548 0.238 0.097 0.145 0.141 0.15 0.315 0.019 0.189-0.141 0.286-0.078 0.562 0.349 0.209 0.325 0.233 0.344 0.368 0.315 0.097-0.019 0.204 0.005 0.339 0.078 0.179 0.092 0.218 0.097 0.354 0.044 0.301-0.126 0.373-0.121 0.499 0.015 0.073 0.082 0.15 0.121 0.199 0.102 0.039-0.015 0.16 0.029 0.262 0.097 0.175 0.116 0.204 0.121 0.296 0.058 0.058-0.039 0.223-0.107 0.364-0.155 0.257-0.082 0.262-0.082 0.373 0.024s0.131 0.107 0.407 0.049c0.16-0.034 0.344-0.049 0.407-0.029 0.078 0.019 0.141 0 0.179-0.044 0.053-0.068 0.078-0.063 0.213 0.015 0.165 0.097 0.32 0.16 0.32 0.136 0-0.010-0.102-0.078-0.223-0.15-0.194-0.111-0.242-0.121-0.335-0.073-0.087 0.044-0.131 0.044-0.213-0.010-0.087-0.053-0.126-0.053-0.252 0.019-0.194 0.111-0.378 0.111-0.504-0.010-0.097-0.092-0.102-0.092-0.412 0.005-0.17 0.053-0.339 0.121-0.373 0.15-0.053 0.044-0.097 0.029-0.189-0.073-0.078-0.082-0.17-0.131-0.257-0.131-0.073 0-0.175-0.044-0.218-0.092-0.048-0.053-0.141-0.102-0.204-0.111l-0.116-0.015 0.15-0.16c0.17-0.184 0.296-0.194 0.446-0.044 0.087 0.082 0.145 0.102 0.252 0.078 0.141-0.029 0.141-0.034 0.019-0.039-0.073 0-0.184-0.049-0.252-0.102-0.184-0.145-0.315-0.121-0.572 0.121-0.194 0.179-0.267 0.218-0.417 0.218-0.102 0-0.233-0.034-0.291-0.073-0.068-0.049-0.155-0.063-0.228-0.044-0.107 0.024-0.145-0.010-0.359-0.335l-0.242-0.369 0.189-0.199c0.145-0.155 0.209-0.189 0.272-0.155 0.048 0.024 0.262 0.082 0.475 0.131s0.431 0.116 0.485 0.155c0.053 0.034 0.15 0.063 0.218 0.063 0.082 0 0.165 0.058 0.262 0.175 0.131 0.165 0.15 0.175 0.412 0.16 0.15-0.005 0.364 0.015 0.475 0.053 0.194 0.058 0.223 0.053 0.456-0.068l0.247-0.126 0.155 0.097c0.155 0.092 0.16 0.092 0.422-0.005 0.145-0.053 0.31-0.15 0.368-0.213 0.131-0.145 0.194-0.446 0.116-0.524-0.082-0.082-0.063-0.179 0.039-0.179 0.058 0 0.121 0.053 0.16 0.131 0.048 0.102 0.107 0.141 0.233 0.15 0.184 0.019 0.553-0.141 0.601-0.257 0.015-0.044 0.092-0.073 0.194-0.073 0.092 0 0.184-0.024 0.199-0.049 0.015-0.029 0.111-0.049 0.213-0.049 0.145 0 0.233 0.044 0.441 0.223 0.252 0.213 0.267 0.223 0.504 0.189 0.296-0.034 0.495-0.034 0.853-0.005 0.15 0.015 0.315 0 0.373-0.029 0.082-0.039 0.141-0.039 0.233 0 0.092 0.044 0.155 0.039 0.296-0.019 0.247-0.102 0.655-0.049 0.8 0.107 0.126 0.131 0.223 0.145 0.359 0.049 0.053-0.034 0.179-0.078 0.281-0.097 0.097-0.015 0.257-0.044 0.349-0.058 0.097-0.019 0.238-0.005 0.32 0.029 0.121 0.053 0.155 0.053 0.189 0 0.029-0.053 0.078-0.049 0.238 0.015 0.121 0.049 0.204 0.063 0.223 0.034 0.015-0.029-0.019-0.049-0.082-0.049s-0.165-0.034-0.223-0.078c-0.087-0.058-0.126-0.063-0.179-0.019s-0.107 0.044-0.238-0.005c-0.131-0.049-0.209-0.049-0.359-0.005-0.107 0.034-0.257 0.058-0.335 0.058-0.082 0-0.175 0.034-0.209 0.073-0.082 0.097-0.107 0.092-0.315-0.073-0.16-0.126-0.218-0.145-0.48-0.141-0.16 0-0.339 0.019-0.393 0.039-0.053 0.024-0.136 0.019-0.189-0.005-0.063-0.034-0.184-0.029-0.373 0.010-0.242 0.053-0.31 0.049-0.514-0.024-0.223-0.078-0.247-0.078-0.393-0.005-0.218 0.111-0.383 0.097-0.509-0.049-0.058-0.068-0.199-0.179-0.315-0.247-0.165-0.097-0.242-0.116-0.412-0.092-0.111 0.019-0.296 0.044-0.412 0.058-0.131 0.019-0.233 0.063-0.267 0.121-0.029 0.049-0.082 0.092-0.111 0.092s-0.082 0.034-0.116 0.073c-0.087 0.107-0.223 0.087-0.305-0.044-0.044-0.063-0.141-0.136-0.213-0.16-0.291-0.102-0.499 0.116-0.412 0.427 0.068 0.247 0 0.369-0.242 0.436-0.16 0.044-0.242 0.044-0.354-0.005-0.272-0.107-0.305-0.107-0.504 0.029-0.199 0.131-0.199 0.131-0.393 0.044-0.131-0.058-0.247-0.078-0.398-0.053-0.238 0.034-0.267 0.019-0.422-0.204-0.087-0.121-0.145-0.16-0.242-0.15-0.068 0.010-0.189-0.019-0.272-0.058-0.218-0.111-1.11-0.305-1.241-0.271-0.063 0.019-0.15 0.097-0.199 0.175-0.053 0.097-0.141 0.16-0.262 0.194-0.175 0.049-0.199 0.044-0.339-0.097-0.097-0.097-0.165-0.218-0.184-0.335-0.063-0.393-0.524-0.558-0.95-0.339-0.257 0.131-0.359 0.291-0.32 0.504 0.024 0.136 0.015 0.179-0.053 0.213-0.204 0.107-0.388 0.111-0.664 0.010-0.252-0.097-0.286-0.126-0.388-0.354-0.126-0.286-0.247-0.412-0.446-0.465-0.092-0.024-0.145-0.073-0.155-0.141-0.019-0.121-0.272-0.349-0.393-0.349-0.048 0-0.131 0.053-0.184 0.116-0.145 0.17-0.475 0.213-0.611 0.087-0.058-0.053-0.189-0.111-0.286-0.126-0.111-0.019-0.272-0.111-0.398-0.218-0.267-0.233-0.499-0.281-0.8-0.175-0.116 0.039-0.291 0.073-0.388 0.073-0.121 0-0.257 0.053-0.431 0.17-0.228 0.145-0.281 0.165-0.47 0.136-0.16-0.019-0.247-0.005-0.339 0.053l-0.126 0.082-0.092-0.218c-0.097-0.218-0.509-0.655-0.679-0.718-0.073-0.024-0.082-0.068-0.063-0.223 0.015-0.111 0-0.238-0.039-0.31-0.082-0.155-0.669-0.606-0.839-0.65-0.068-0.015-0.126-0.044-0.126-0.068 0-0.049 0.577-0.015 0.645 0.039 0.034 0.024 0.17 0.082 0.31 0.126 0.136 0.049 0.276 0.116 0.305 0.155 0.073 0.082 0.446 0.092 0.587 0.015 0.141-0.073 0.252 0.034 0.223 0.213-0.015 0.116 0.005 0.155 0.131 0.233 0.082 0.049 0.209 0.092 0.281 0.092s0.145 0.024 0.16 0.049c0.015 0.024 0.078 0.049 0.141 0.049 0.058 0 0.16 0.058 0.228 0.126 0.097 0.107 0.145 0.121 0.305 0.102 0.102-0.015 0.296-0.082 0.431-0.15 0.145-0.078 0.281-0.116 0.344-0.102 0.082 0.024 0.087 0.019 0.029-0.024-0.063-0.044-0.058-0.058 0.019-0.121 0.053-0.039 0.121-0.073 0.145-0.073 0.097 0 0.267 0.33 0.301 0.577 0.019 0.141 0.068 0.276 0.121 0.325 0.078 0.073 0.097 0.073 0.233-0.010 0.082-0.049 0.15-0.107 0.15-0.131s0.024-0.034 0.053-0.024c0.029 0.010 0.048 0.034 0.044 0.058-0.015 0.068 0.107 0.126 0.257 0.126 0.111 0 0.15-0.034 0.228-0.218 0.102-0.242 0.199-0.276 0.31-0.111 0.044 0.058 0.078 0.092 0.078 0.068 0-0.019-0.044-0.102-0.102-0.179-0.073-0.102-0.141-0.141-0.242-0.141-0.16 0-0.441-0.131-0.625-0.291-0.097-0.087-0.16-0.102-0.325-0.078-0.179 0.024-0.223 0.010-0.364-0.116-0.184-0.17-0.165-0.175 0.184-0.063 0.233 0.073 0.272 0.073 0.465 0.005 0.116-0.044 0.339-0.102 0.499-0.131 0.48-0.087 0.495-0.092 0.344-0.097-0.213-0.010-0.761 0.097-0.916 0.175-0.121 0.058-0.165 0.058-0.436-0.039-0.175-0.063-0.373-0.175-0.47-0.271-0.165-0.16-0.17-0.165-0.073-0.238 0.073-0.053 0.16-0.063 0.364-0.034 0.233 0.034 0.407 0.034 0.718 0.015 0.175-0.015 0.524 0.063 0.601 0.136 0.048 0.039 0.116 0.058 0.155 0.044s0.17 0.005 0.301 0.044c0.267 0.078 0.524 0.087 0.645 0.019 0.063-0.034 0.141-0.019 0.276 0.049 0.102 0.053 0.252 0.097 0.335 0.097 0.078 0 0.228 0.024 0.33 0.053 0.175 0.049 0.199 0.039 0.373-0.111 0.238-0.204 0.252-0.286 0.015-0.107-0.184 0.141-0.31 0.16-0.679 0.092-0.218-0.039-0.262-0.087-0.131-0.141 0.044-0.019 0.068-0.044 0.053-0.058s-0.073 0-0.131 0.029c-0.087 0.049-0.141 0.044-0.272-0.029-0.092-0.049-0.165-0.102-0.165-0.121 0-0.078-0.199-0.073-0.373 0.005-0.17 0.073-0.209 0.078-0.32 0.015-0.102-0.049-0.155-0.053-0.233-0.015-0.078 0.044-0.111 0.039-0.155-0.015-0.058-0.073-0.364-0.136-0.625-0.131-0.078 0-0.194 0-0.267 0-0.126 0.005-0.519-0.044-1.038-0.121-0.16-0.024-0.262-0.015-0.373 0.044-0.194 0.102-0.179 0.107-0.291-0.087l-0.097-0.16-0.499-0.044c-0.276-0.019-0.524-0.034-0.553-0.034-0.179 0.029-0.49 0.126-0.543 0.17-0.034 0.024-0.116 0.034-0.184 0.019-0.141-0.034-0.495 0.049-0.606 0.145-0.082 0.073-0.562 0.049-0.785-0.039-0.107-0.039-0.16-0.034-0.247 0.024-0.107 0.068-0.126 0.068-0.238-0.005-0.068-0.044-0.194-0.155-0.276-0.247-0.131-0.141-0.17-0.155-0.286-0.121-0.073 0.024-0.262 0.044-0.417 0.039-0.242 0-0.301-0.019-0.364-0.111-0.204-0.301-0.747-0.718-1.038-0.805-0.204-0.058-0.281-0.141-0.48-0.504-0.049-0.082-0.121-0.15-0.175-0.15-0.049 0-0.209 0.097-0.354 0.218-0.145 0.116-0.325 0.267-0.407 0.33-0.078 0.063-0.228 0.131-0.325 0.15-0.15 0.029-0.179 0.019-0.209-0.063-0.044-0.136-0.15-0.213-0.354-0.242l-0.179-0.029-0.005-0.286c-0.005-0.238-0.024-0.301-0.111-0.378-0.141-0.111-0.499-0.116-0.664-0.005-0.121 0.078-0.126 0.078-0.441-0.252-0.296-0.31-0.33-0.33-0.543-0.339-0.121-0.005-0.286-0.034-0.369-0.068-0.107-0.044-0.194-0.044-0.373 0-0.199 0.044-0.252 0.044-0.354-0.024-0.063-0.044-0.141-0.078-0.175-0.078-0.029 0-0.276 0.155-0.543 0.344-0.369 0.257-0.509 0.335-0.567 0.301-0.039-0.024-0.16-0.213-0.262-0.422-0.165-0.325-0.233-0.407-0.451-0.543-0.175-0.116-0.267-0.209-0.286-0.301-0.053-0.252-0.107-0.335-0.286-0.422-0.257-0.121-0.621-0.082-0.882 0.092-0.184 0.121-0.252 0.136-0.703 0.15-0.276 0.010-0.514 0.019-0.533 0.019-0.015 0.005-0.097 0.063-0.179 0.131l-0.15 0.126-0.165-0.102c-0.262-0.165-1.59-0.674-1.852-0.708-0.131-0.019-0.276-0.058-0.33-0.082-0.082-0.044-0.078-0.053 0.049-0.141 0.078-0.049 0.194-0.092 0.257-0.092 0.068 0 0.209-0.058 0.31-0.131 0.107-0.073 0.271-0.16 0.369-0.194 0.15-0.053 0.194-0.049 0.335 0.034 0.194 0.116 0.262 0.121 0.441 0.029 0.126-0.068 0.155-0.063 0.422 0.068 0.155 0.078 0.412 0.165 0.572 0.199 0.281 0.063 0.286 0.063 0.378-0.068 0.053-0.073 0.179-0.175 0.276-0.223 0.17-0.087 0.184-0.087 0.296-0.010 0.068 0.049 0.209 0.116 0.315 0.155 0.179 0.068 0.213 0.068 0.509-0.039 0.223-0.078 0.276-0.111 0.184-0.111-0.15 0-0.16-0.015-0.087-0.15 0.034-0.053 0.102-0.092 0.184-0.092 0.073 0 0.184-0.034 0.252-0.073 0.242-0.141 0.252-0.141 0.354-0.005 0.073 0.102 0.121 0.126 0.223 0.102 0.111-0.024 0.16 0.015 0.422 0.33 0.32 0.378 0.49 0.47 0.878 0.47 0.111 0 0.276 0.034 0.369 0.073 0.121 0.049 0.276 0.063 0.514 0.049 0.33-0.024 0.349-0.015 0.81 0.218 0.262 0.136 0.519 0.242 0.567 0.242 0.053 0 0.179 0.078 0.281 0.17 0.155 0.141 0.223 0.17 0.398 0.165 0.301-0.005 0.446-0.058 0.461-0.165 0.010-0.087 0.010-0.087-0.039-0.015-0.087 0.136-0.407 0.16-0.65 0.039-0.199-0.092-0.31-0.223-0.247-0.281 0.015-0.015 0.053 0 0.082 0.029 0.034 0.034 0.082 0.058 0.111 0.058 0.024 0 0.010-0.034-0.039-0.068-0.058-0.044-0.155-0.058-0.281-0.044-0.165 0.024-0.257-0.005-0.558-0.16-0.194-0.102-0.349-0.209-0.344-0.238 0.010-0.024 0.102-0.073 0.204-0.102 0.145-0.039 0.204-0.087 0.252-0.204 0.078-0.184 0.179-0.199 0.281-0.039 0.058 0.087 0.131 0.121 0.33 0.141 0.141 0.015 0.276 0.005 0.301-0.015 0.029-0.024 0.179-0.082 0.339-0.141l0.291-0.097 0.218 0.238c0.218 0.242 0.398 0.344 0.596 0.335 0.121-0.005 0.092-0.019-0.199-0.092-0.165-0.044-0.242-0.102-0.378-0.291-0.194-0.271-0.247-0.286-0.601-0.145-0.141 0.053-0.359 0.097-0.514 0.097-0.233 0-0.271-0.015-0.32-0.121-0.029-0.068-0.092-0.121-0.145-0.121-0.049 0-0.087-0.024-0.087-0.049 0-0.097 0.145-0.107 0.339-0.029 0.107 0.044 0.257 0.078 0.33 0.078 0.102-0.005 0.073-0.024-0.126-0.092-0.136-0.049-0.301-0.131-0.359-0.179s-0.087-0.068-0.073-0.039c0.019 0.034-0.049 0.111-0.15 0.184-0.233 0.16-0.335 0.165-0.179 0.005 0.068-0.063 0.121-0.141 0.121-0.17 0-0.024 0.034-0.049 0.078-0.049 0.039 0 0.058-0.024 0.044-0.049-0.053-0.082-0.111-0.053-0.179 0.082-0.039 0.087-0.165 0.184-0.33 0.271l-0.267 0.131-0.247-0.092c-0.286-0.111-0.582-0.354-0.679-0.562-0.039-0.082-0.131-0.242-0.204-0.364-0.131-0.213-0.145-0.218-0.402-0.233-0.393-0.015-0.48-0.044-0.446-0.141 0.024-0.058 0.005-0.053-0.073 0.024-0.058 0.058-0.155 0.116-0.213 0.131-0.063 0.015-0.199 0.044-0.305 0.073-0.194 0.049-0.194 0.049 0.053 0.024 0.213-0.015 0.267 0 0.359 0.097 0.155 0.165 0.107 0.267-0.184 0.373-0.262 0.097-0.262 0.097-0.364 0-0.058-0.053-0.155-0.107-0.213-0.116-0.102-0.015-0.102-0.015-0.015-0.199 0.102-0.213 0.034-0.194-0.078 0.019-0.039 0.082-0.102 0.136-0.136 0.126-0.078-0.029-0.369 0.092-0.369 0.155 0 0.024-0.073 0.058-0.155 0.078-0.087 0.019-0.209 0.068-0.271 0.107-0.092 0.058-0.126 0.058-0.189 0.005-0.053-0.039-0.281-0.063-0.722-0.073-0.359-0.010-0.722-0.019-0.805-0.024-0.296-0.010-0.664 0.068-0.747 0.16-0.102 0.111-0.267 0.116-0.465 0.015-0.126-0.068-0.179-0.068-0.364-0.015-0.121 0.029-0.296 0.111-0.388 0.175s-0.238 0.131-0.325 0.145c-0.082 0.015-0.204 0.058-0.262 0.097-0.092 0.058-0.141 0.058-0.257 0.015-0.107-0.044-0.175-0.049-0.271-0.005-0.291 0.111-0.475 0.087-0.689-0.107-0.111-0.097-0.228-0.179-0.267-0.179s-0.209-0.063-0.378-0.145c-0.33-0.155-0.47-0.175-0.708-0.092-0.131 0.044-0.179 0.039-0.31-0.044-0.087-0.053-0.257-0.111-0.373-0.131-0.121-0.019-0.335-0.078-0.485-0.126-0.145-0.053-0.335-0.092-0.427-0.092s-0.252-0.044-0.364-0.102c-0.179-0.092-0.223-0.097-0.398-0.044-0.111 0.034-0.257 0.092-0.33 0.126-0.116 0.063-0.15 0.063-0.276-0.005-0.082-0.039-0.213-0.073-0.296-0.073-0.15 0-0.204-0.034-0.64-0.378-0.111-0.092-0.335-0.228-0.495-0.31-0.165-0.082-0.364-0.199-0.441-0.262-0.359-0.271-0.897-0.393-1.149-0.257-0.082 0.044-0.121 0.029-0.252-0.087-0.082-0.078-0.267-0.228-0.407-0.325-0.141-0.102-0.354-0.325-0.48-0.509-0.364-0.519-0.441-0.587-0.664-0.591-0.305 0-0.577-0.141-0.8-0.398-0.112-0.131-0.199-0.262-0.199-0.296 0-0.102-0.204-0.577-0.286-0.679-0.044-0.048-0.184-0.141-0.32-0.204-0.131-0.058-0.301-0.175-0.373-0.252-0.116-0.126-0.136-0.189-0.136-0.422 0-0.378-0.097-0.558-0.519-0.936-0.199-0.179-0.407-0.407-0.456-0.504-0.058-0.111-0.199-0.252-0.369-0.364-0.252-0.165-0.281-0.208-0.315-0.402-0.044-0.247-0.242-0.519-0.465-0.625-0.087-0.048-0.204-0.17-0.276-0.305-0.068-0.131-0.175-0.257-0.233-0.286-0.058-0.034-0.16-0.121-0.228-0.199-0.097-0.116-0.179-0.15-0.436-0.184-0.175-0.024-0.431-0.048-0.572-0.048-0.213 0-0.281-0.024-0.383-0.126-0.286-0.286-0.611-0.388-0.795-0.247zM9.77 8.65c0.136 0.063 0.296 0.17 0.359 0.238s0.184 0.141 0.267 0.16c0.189 0.039 0.427 0.179 0.499 0.301 0.049 0.078-0.005 0.068-0.315-0.068-0.271-0.116-0.446-0.165-0.635-0.165-0.228 0-0.281-0.019-0.446-0.17-0.107-0.092-0.213-0.17-0.238-0.17-0.092 0-0.049-0.15 0.063-0.194 0.155-0.063 0.179-0.058 0.446 0.068zM24.32 9.164c0.199 0 0.271 0.019 0.296 0.078 0.131 0.349 0.689 0.97 0.907 1.018 0.252 0.053 0.335 0.111 0.267 0.194-0.082 0.102-0.209 0.082-0.33-0.058-0.082-0.097-0.136-0.116-0.228-0.097-0.063 0.019-0.165 0.005-0.218-0.024-0.082-0.044-0.121-0.034-0.213 0.053-0.082 0.078-0.15 0.102-0.238 0.078-0.068-0.015-0.175-0.005-0.242 0.024-0.116 0.053-0.141 0.039-0.354-0.199-0.359-0.393-0.412-0.533-0.209-0.533 0.053 0 0.131-0.053 0.175-0.121 0.078-0.116 0.073-0.184-0.010-0.383-0.029-0.078-0.019-0.087 0.049-0.063 0.049 0.019 0.204 0.034 0.349 0.034zM22.788 9.571c-0.097 0.092-0.339 0.155-0.339 0.087 0-0.073 0.15-0.15 0.291-0.155 0.102 0 0.107 0.010 0.049 0.068zM11.418 9.697c0.136 0.078 0.281 0.145 0.33 0.145s0.15 0.049 0.223 0.102l0.141 0.102 0.393-0.131c0.388-0.126 0.398-0.126 0.611-0.049 0.145 0.058 0.281 0.078 0.412 0.053 0.136-0.019 0.242-0.005 0.339 0.044 0.078 0.039 0.257 0.097 0.398 0.126s0.339 0.107 0.446 0.175c0.141 0.092 0.223 0.111 0.339 0.087 0.373-0.073 0.47-0.078 0.63-0.024 0.097 0.029 0.175 0.078 0.175 0.097 0 0.024-0.034 0.034-0.068 0.019-0.039-0.015-0.189 0.005-0.339 0.049-0.339 0.102-0.402 0.097-0.548-0.019-0.16-0.126-0.354-0.121-0.611 0.005-0.286 0.15-0.747 0.136-0.999-0.034-0.102-0.063-0.305-0.145-0.451-0.175-0.233-0.049-0.315-0.044-0.558 0.029-0.281 0.087-0.286 0.087-0.451-0.015-0.17-0.097-0.771-0.732-0.693-0.732 0.019 0 0.15 0.068 0.281 0.145zM20.611 9.891c0.053 0 0.092 0.019 0.092 0.049 0 0.053-0.524 0.068-0.655 0.019-0.15-0.058 0.034-0.121 0.262-0.092 0.116 0.015 0.252 0.024 0.301 0.024zM22.303 9.891c0 0.063-0.252 0.291-0.325 0.291-0.102 0-0.073-0.175 0.049-0.257 0.121-0.087 0.276-0.107 0.276-0.034zM21.188 9.935c0 0.024-0.063 0.068-0.145 0.102-0.078 0.034-0.175 0.111-0.218 0.179-0.068 0.102-0.107 0.116-0.233 0.087-0.087-0.015-0.218-0.039-0.296-0.049-0.141-0.019-0.335-0.131-0.465-0.262-0.063-0.063-0.063-0.068 0.024-0.034 0.092 0.034 0.606 0.121 0.737 0.126 0.029 0 0.087-0.029 0.126-0.068s0.141-0.078 0.233-0.092c0.092-0.010 0.179-0.024 0.204-0.024 0.019-0.005 0.034 0.010 0.034 0.034zM21.576 9.91c0 0.015-0.019 0.039-0.049 0.053-0.024 0.015-0.049 0.005-0.049-0.019 0-0.029 0.024-0.053 0.049-0.053 0.029 0 0.049 0.010 0.049 0.019zM21.818 10.061c0.053 0.063 0.039 0.073-0.063 0.073-0.126 0-0.204-0.058-0.145-0.116 0.053-0.053 0.145-0.034 0.209 0.044zM26.463 10.497c-0.107 0.102-0.359 0.165-0.562 0.136l-0.189-0.024 0.102-0.107c0.058-0.058 0.141-0.097 0.189-0.087 0.049 0.015 0.121-0.010 0.17-0.053 0.131-0.116 0.32-0.126 0.339-0.015 0.010 0.049-0.010 0.116-0.049 0.15zM24.97 10.327c0 0.024-0.019 0.049-0.049 0.049-0.024 0-0.049-0.024-0.049-0.049 0-0.029 0.024-0.049 0.049-0.049 0.029 0 0.049 0.019 0.049 0.049zM25.411 10.468c0.228 0.184-0.078 0.281-0.456 0.145-0.281-0.107-0.199-0.17 0.286-0.233 0.034 0 0.107 0.039 0.17 0.087zM24.679 10.521c0 0.024-0.044 0.049-0.092 0.049-0.053 0-0.111-0.024-0.126-0.049-0.019-0.029 0.024-0.049 0.092-0.049s0.126 0.019 0.126 0.049zM16.17 10.575c0.058 0.092-0.024 0.111-0.107 0.029-0.078-0.078-0.078-0.082-0.005-0.082 0.044 0 0.097 0.024 0.111 0.053zM22.279 11.782c0.092 0.184 0.179 0.276 0.364 0.378 0.209 0.111 0.257 0.175 0.388 0.461 0.078 0.179 0.145 0.344 0.145 0.368 0 0.111-0.664 0.136-0.994 0.034l-0.194-0.058 0.015-0.257c0.019-0.247 0.015-0.262-0.204-0.47-0.209-0.199-0.242-0.213-0.49-0.213-0.145 0-0.315 0.024-0.383 0.053-0.145 0.068-0.373 0.019-0.339-0.068 0.015-0.039 0.213-0.082 0.538-0.121 0.475-0.058 0.834-0.175 0.912-0.301 0.058-0.097 0.121-0.044 0.242 0.194zM19.331 11.927c0.039 0 0.053 0.019 0.039 0.049-0.058 0.092-0.165 0.049-0.276-0.111l-0.111-0.155 0.141 0.107c0.078 0.063 0.17 0.111 0.209 0.111zM25.823 12.611c0.068 0.078 0.126 0.092 0.242 0.068 0.126-0.019 0.179 0 0.296 0.107 0.296 0.281 0.616 0.499 0.727 0.499 0.068 0 0.175-0.044 0.242-0.097 0.15-0.116 0.209-0.087 0.209 0.097 0 0.32 0.218 0.63 0.446 0.63 0.087 0 0.16 0.039 0.209 0.116 0.165 0.247 0.684 0.213 1.023-0.063 0.47-0.388 0.509-0.412 0.558-0.339 0.024 0.039 0.044 0.092 0.044 0.126 0 0.097 0.296 0.305 0.436 0.305 0.092 0 0.199 0.058 0.315 0.165 0.097 0.092 0.238 0.189 0.305 0.213 0.102 0.034 0.136 0.082 0.16 0.218 0.034 0.228 0.039 0.233 0.32 0.281 0.126 0.024 0.31 0.097 0.412 0.165s0.209 0.121 0.238 0.121c0.034 0 0.179 0.058 0.325 0.131 0.189 0.092 0.335 0.126 0.514 0.126 0.155-0.005 0.291 0.024 0.368 0.073 0.068 0.044 0.189 0.102 0.267 0.131 0.082 0.029 0.276 0.15 0.427 0.262l0.276 0.213-0.029 0.238c-0.029 0.204-0.019 0.252 0.078 0.354 0.063 0.068 0.136 0.121 0.165 0.121 0.107 0 0.465 0.369 0.587 0.601 0.131 0.257 0.131 0.305-0.010 0.233-0.048-0.024-0.175-0.063-0.276-0.078-0.107-0.019-0.383-0.136-0.621-0.252-0.499-0.257-0.703-0.271-0.805-0.058-0.034 0.078-0.107 0.155-0.155 0.184-0.078 0.044-0.097 0.034-0.126-0.068-0.034-0.145-0.155-0.257-0.446-0.417-0.141-0.073-0.281-0.209-0.373-0.344-0.078-0.121-0.301-0.378-0.495-0.567l-0.349-0.349h-0.31c-0.223 0-0.33-0.019-0.373-0.078-0.111-0.131-0.223-0.165-0.369-0.107-0.121 0.044-0.194 0.029-0.475-0.082-0.296-0.116-0.369-0.131-0.582-0.092-0.15 0.029-0.32 0.029-0.431 0-0.15-0.039-0.242-0.029-0.431 0.039-0.194 0.068-0.315 0.078-0.582 0.053-0.335-0.034-0.339-0.039-0.407-0.213-0.039-0.097-0.087-0.209-0.107-0.247-0.049-0.082-0.529-0.339-0.645-0.339-0.044 0-0.116-0.049-0.155-0.111-0.102-0.16-0.669-0.446-1.125-0.572-0.461-0.121-0.48-0.141-0.635-0.436-0.063-0.131-0.194-0.296-0.286-0.368s-0.17-0.165-0.17-0.194c0-0.034 0.111-0.116 0.242-0.184 0.136-0.068 0.257-0.155 0.276-0.194 0.029-0.082 0.189-0.097 0.233-0.024 0.044 0.068 0.223 0.058 0.364-0.024 0.175-0.097 0.359-0.087 0.465 0.029zM36.068 14.933c0.238 0.145 0.393 0.339 0.213 0.267-0.281-0.116-0.64-0.175-0.873-0.145-0.213 0.024-0.267 0.015-0.349-0.068l-0.102-0.102 0.111-0.024c0.058-0.015 0.228-0.029 0.373-0.039s0.296-0.019 0.325-0.024c0.034-0.005 0.17 0.058 0.301 0.136zM36.373 14.836c0.048 0 0.121 0.068 0.16 0.145 0.068 0.131 0.068 0.15 0 0.175-0.044 0.019-0.141-0.034-0.242-0.121-0.097-0.082-0.194-0.15-0.223-0.15s-0.034-0.024-0.015-0.053c0.015-0.029 0.078-0.039 0.136-0.024 0.053 0.015 0.141 0.029 0.184 0.029zM32.436 14.987c0 0.024-0.044 0.019-0.092-0.015-0.053-0.034-0.082-0.078-0.068-0.097 0.024-0.049 0.16 0.049 0.16 0.111zM34.972 15.2c0.029 0.053 0.141 0.068 0.461 0.063 0.344-0.005 0.495 0.015 0.824 0.126 0.218 0.073 0.514 0.145 0.655 0.16 0.136 0.019 0.276 0.063 0.305 0.102 0.029 0.044 0.087 0.063 0.136 0.044 0.053-0.019 0.131 0.015 0.223 0.107 0.082 0.073 0.145 0.145 0.145 0.16s-0.087 0.063-0.194 0.112c-0.141 0.063-0.257 0.078-0.431 0.058-0.218-0.024-0.247-0.019-0.32 0.092l-0.078 0.121-0.31-0.175c-0.223-0.121-0.344-0.165-0.431-0.141-0.184 0.044-0.32-0.053-0.32-0.242 0-0.097-0.039-0.194-0.097-0.247-0.087-0.078-0.121-0.082-0.262-0.034-0.218 0.082-0.339 0.073-0.524-0.034-0.087-0.049-0.228-0.107-0.315-0.126-0.179-0.034-0.305-0.155-0.204-0.189 0.039-0.010 0.102-0.034 0.141-0.049 0.126-0.044 0.558 0.024 0.596 0.092zM36.965 15.2c-0.019 0.039-0.063 0.073-0.102 0.073-0.063 0-0.063-0.015-0.015-0.073 0.034-0.039 0.078-0.073 0.102-0.073s0.029 0.034 0.015 0.073zM37.392 15.185c-0.044 0.044-0.073 0.044-0.116 0s-0.034-0.058 0.058-0.058c0.092 0 0.102 0.015 0.058 0.058zM37.139 15.273c0 0.024-0.024 0.049-0.053 0.049-0.024 0-0.034-0.024-0.019-0.049 0.015-0.029 0.039-0.049 0.053-0.049 0.010 0 0.019 0.019 0.019 0.049zM40.242 15.341c0 0.053-0.092 0.073-0.121 0.029-0.015-0.024 0.005-0.049 0.044-0.049 0.044 0 0.078 0.010 0.078 0.019zM37.328 15.447c0.082 0.058 0.097 0.092 0.053 0.136-0.039 0.039-0.073 0.034-0.116-0.034-0.034-0.044-0.111-0.082-0.17-0.082s-0.092-0.019-0.078-0.049c0.044-0.073 0.184-0.058 0.31 0.029zM38.531 16.16c0.073 0.058 0.204 0.141 0.281 0.175 0.136 0.058 0.136 0.068 0.048 0.102-0.053 0.024-0.218 0.029-0.364 0.015-0.223-0.019-0.291-0.049-0.402-0.175l-0.136-0.155 0.16-0.029c0.262-0.049 0.267-0.049 0.412 0.068zM31.224 16.291c0.058 0.078 0.131 0.145 0.16 0.145 0.073 0 0.422 0.354 0.422 0.431 0 0.029-0.053 0.053-0.121 0.053-0.092 0-0.155-0.053-0.267-0.233-0.082-0.126-0.228-0.301-0.325-0.383-0.165-0.141-0.17-0.16-0.078-0.16 0.063 0 0.145 0.058 0.209 0.145zM37.173 16.194c0.102 0 0.111 0.015 0.068 0.068-0.053 0.063-0.194 0.107-0.514 0.15-0.078 0.010-0.107 0.010-0.063-0.005s0.116-0.082 0.16-0.145c0.048-0.078 0.107-0.111 0.155-0.097 0.039 0.015 0.126 0.029 0.194 0.029zM38.764 16.538c0.024-0.024 0.15-0.053 0.281-0.068l0.228-0.034-0.087 0.136c-0.048 0.073-0.107 0.175-0.136 0.223-0.073 0.136-0.131 0.141-0.262 0.029-0.141-0.126-0.213-0.121-0.388 0.010-0.175 0.126-0.218 0.092-0.267-0.184l-0.029-0.199 0.301 0.063c0.17 0.034 0.33 0.044 0.359 0.024zM42.352 18.167c0.048 0.044 0.073 0.126 0.058 0.189-0.015 0.073 0.019 0.15 0.092 0.218 0.126 0.116 0.165 0.238 0.044 0.141-0.044-0.039-0.136-0.049-0.267-0.024s-0.194 0.015-0.194-0.024c0-0.029-0.078-0.087-0.17-0.126-0.141-0.058-0.17-0.097-0.17-0.209s0.029-0.155 0.136-0.189c0.199-0.078 0.383-0.068 0.47 0.024zM41.455 18.885c0 0.141 0.005 0.141-0.179 0.068-0.131-0.049-0.131-0.053-0.044-0.121 0.141-0.102 0.223-0.082 0.223 0.053zM42.958 19.006c0 0.024-0.019 0.049-0.048 0.049-0.024 0-0.048-0.024-0.048-0.049 0-0.029 0.024-0.049 0.048-0.049 0.029 0 0.048 0.019 0.048 0.049zM47.404 19.956c-0.015 0.015-0.058 0.019-0.092 0.005-0.039-0.015-0.024-0.029 0.029-0.029 0.053-0.005 0.082 0.010 0.063 0.024zM41.784 21.673c0.179 0.107 0.543 0.262 0.81 0.344 0.761 0.238 1.042 0.422 1.042 0.684 0 0.097 0.078 0.223 0.272 0.441 0.15 0.165 0.33 0.364 0.393 0.436 0.068 0.073 0.204 0.165 0.296 0.209 0.223 0.092 0.669 0.136 0.853 0.078 0.107-0.029 0.189-0.015 0.315 0.049 0.092 0.049 0.218 0.087 0.272 0.087 0.097 0 0.233 0.141 0.359 0.378 0.053 0.097 0.044 0.111-0.078 0.165-0.073 0.034-0.257 0.058-0.402 0.063-0.145 0-0.305 0.019-0.349 0.044-0.068 0.029-0.087 0.019-0.087-0.044 0-0.111-0.305-0.412-0.422-0.412-0.053 0-0.165-0.078-0.257-0.17-0.179-0.189-0.291-0.204-0.548-0.097-0.184 0.078-0.281 0.058-0.461-0.078-0.078-0.058-0.16-0.078-0.296-0.058-0.165 0.024-0.194 0.010-0.291-0.126-0.073-0.102-0.184-0.17-0.339-0.218-0.131-0.039-0.291-0.126-0.359-0.194-0.102-0.102-0.175-0.126-0.364-0.126-0.126 0-0.276-0.029-0.325-0.068-0.068-0.049-0.121-0.053-0.184-0.024-0.048 0.029-0.126 0.034-0.179 0.019s-0.165 0.005-0.252 0.044c-0.228 0.107-0.393 0.068-0.616-0.131-0.165-0.145-0.223-0.17-0.436-0.17-0.131-0.005-0.291-0.029-0.344-0.058-0.078-0.039-0.145-0.039-0.272 0-0.16 0.053-0.184 0.049-0.305-0.068-0.15-0.145-0.33-0.16-0.543-0.049-0.141 0.073-0.15 0.068-0.286-0.078l-0.141-0.15 0.286 0.034c0.267 0.029 0.305 0.019 0.533-0.126 0.262-0.165 0.291-0.17 0.907-0.068 0.204 0.029 0.209 0.029 0.281-0.141 0.082-0.199 0.378-0.465 0.611-0.548 0.32-0.116 0.558-0.082 0.907 0.126zM37.891 22.497c-0.175 0.141-0.213 0.141-0.359 0.029-0.048-0.039-0.029-0.063 0.097-0.107 0.092-0.034 0.228-0.063 0.305-0.063l0.141-0.005-0.184 0.145zM38.303 22.57c0.087 0.107 0.029 0.141-0.223 0.145-0.238 0-0.233 0.005-0.165-0.126 0.063-0.111 0.301-0.126 0.388-0.019zM44.49 22.909c0.078 0.019 0.213 0.068 0.305 0.107s0.272 0.082 0.402 0.087c0.145 0.010 0.296 0.049 0.368 0.107 0.073 0.053 0.17 0.107 0.218 0.126 0.044 0.015 0.082 0.063 0.082 0.107 0 0.058-0.019 0.063-0.087 0.029-0.048-0.024-0.262-0.034-0.48-0.019-0.378 0.029-0.693-0.034-0.693-0.131 0-0.019-0.073-0.111-0.155-0.204-0.301-0.325-0.427-0.485-0.427-0.538 0-0.029 0.073 0.024 0.16 0.121 0.092 0.097 0.228 0.194 0.305 0.209zM39.001 22.72c0.107 0.044 0.097 0.116-0.015 0.116-0.102 0-0.165-0.063-0.116-0.116 0.039-0.034 0.039-0.034 0.131 0zM39.011 22.933c0.092 0.005 0.17 0.044 0.228 0.121 0.107 0.145 0.019 0.165-0.16 0.039-0.063-0.044-0.184-0.078-0.267-0.073-0.078 0.005-0.179-0.010-0.218-0.039-0.063-0.044-0.058-0.058 0.019-0.121 0.082-0.063 0.107-0.063 0.175 0 0.044 0.039 0.145 0.073 0.223 0.073zM38.371 22.938c-0.029 0.053-0.199 0.053-0.335 0-0.063-0.024-0.024-0.039 0.136-0.039 0.126-0.005 0.218 0.015 0.199 0.039zM39.059 23.151c0.044 0.039 0.16 0.073 0.267 0.073 0.155 0 0.233 0.034 0.407 0.199 0.121 0.111 0.233 0.262 0.252 0.33 0.015 0.068 0.058 0.17 0.097 0.228 0.078 0.126 0.044 0.165-0.165 0.165-0.15 0-0.16-0.010-0.16-0.17 0-0.267-0.121-0.412-0.339-0.412-0.281 0-0.427-0.073-0.465-0.228-0.019-0.073-0.053-0.165-0.082-0.199-0.068-0.087 0.102-0.078 0.189 0.015zM38.807 23.234c0.087 0.126 0.034 0.209-0.107 0.165-0.131-0.044-0.175-0.271-0.053-0.271 0.048 0 0.121 0.049 0.16 0.107zM40.184 23.539c0.121 0.102 0.175 0.116 0.354 0.092 0.189-0.024 0.228-0.015 0.335 0.102l0.121 0.131-0.272-0.034c-0.15-0.019-0.354-0.034-0.451-0.039-0.16-0.005-0.194-0.029-0.276-0.189-0.116-0.223-0.034-0.252 0.189-0.063zM39.578 23.695c0.078 0.092 0.097 0.165 0.087 0.349-0.005 0.116-0.005 0.116-0.078 0.024-0.039-0.049-0.073-0.121-0.073-0.16s-0.034-0.092-0.082-0.126c-0.044-0.034-0.063-0.082-0.044-0.111 0.048-0.082 0.097-0.073 0.189 0.024zM40.305 23.932c-0.019 0.049-0.044 0.058-0.073 0.029-0.058-0.058-0.005-0.17 0.058-0.131 0.024 0.015 0.029 0.063 0.015 0.102zM40.616 23.947c-0.015 0.058 0.005 0.087 0.048 0.082 0.044 0 0.092 0.029 0.111 0.068 0.199 0.388 0.189 0.485-0.034 0.33-0.165-0.116-0.179-0.141-0.233-0.417-0.024-0.126-0.015-0.155 0.048-0.155 0.058 0 0.078 0.029 0.058 0.092zM46.822 23.903c0.102 0 0.209 0.15 0.209 0.296 0 0.218-0.189 0.175-0.305-0.068-0.044-0.097-0.107-0.179-0.131-0.179-0.029 0-0.048-0.024-0.048-0.053 0-0.034 0.044-0.044 0.111-0.024 0.058 0.015 0.131 0.029 0.165 0.029zM40.417 24.082c-0.053 0.053-0.092-0.029-0.053-0.116 0.039-0.082 0.039-0.082 0.058 0 0.015 0.049 0.010 0.102-0.005 0.116zM40.485 24.218c0 0.044-0.029 0.058-0.073 0.044-0.039-0.019-0.073-0.049-0.073-0.073s0.034-0.044 0.073-0.044c0.039 0 0.073 0.034 0.073 0.073zM40.116 24.223c0.044 0.015 0.078 0.068 0.078 0.111 0 0.063-0.039 0.078-0.204 0.063-0.189-0.019-0.276-0.073-0.281-0.17 0-0.039 0.301-0.049 0.407-0.005zM49.794 25.75c0 0.068-0.034 0.078-0.204 0.058-0.116-0.010-0.242-0.034-0.281-0.049-0.068-0.024-0.121-0.034-0.383-0.053-0.092-0.010-0.102-0.024-0.053-0.078 0.029-0.039 0.048-0.121 0.039-0.184-0.015-0.097 0.005-0.111 0.121-0.097 0.073 0.010 0.17-0.005 0.213-0.034 0.063-0.034 0.136 0 0.315 0.155 0.126 0.107 0.233 0.233 0.233 0.281zM50.24 26.235c0.053 0.029 0.17 0.053 0.262 0.053 0.116 0 0.17 0.024 0.189 0.092 0.019 0.049 0.053 0.092 0.087 0.092 0.029 0-0.010 0.063-0.087 0.145-0.17 0.175-0.247 0.145-0.456-0.194-0.155-0.257-0.155-0.276 0.005-0.189zM41.935 26.759c0.063 0.049 0.092 0.102 0.068 0.116-0.053 0.034-0.257-0.092-0.257-0.165 0-0.068 0.058-0.053 0.189 0.049zM51.588 26.788c0.145-0.034 0.436 0.092 0.436 0.184 0 0.029-0.048 0.121-0.102 0.213-0.17 0.271-0.427 0.315-0.431 0.073 0-0.034-0.053-0.145-0.121-0.242-0.155-0.223-0.16-0.325-0.019-0.252 0.053 0.029 0.16 0.039 0.238 0.024zM52.393 27.176c0.184 0.199 0.529 0.747 0.49 0.785-0.019 0.015-0.238-0.073-0.49-0.199-0.359-0.175-0.49-0.213-0.606-0.194-0.17 0.034-0.213-0.053-0.053-0.102 0.053-0.015 0.165-0.126 0.242-0.247 0.082-0.116 0.175-0.213 0.204-0.213s0.121 0.078 0.213 0.17zM43.312 27.961c-0.034 0.010-0.092 0.010-0.121 0-0.034-0.015-0.010-0.024 0.058-0.024s0.092 0.010 0.063 0.024zM56.078 29.794c0.087 0.063 0.082 0.068-0.082 0.073-0.097 0-0.247 0.015-0.33 0.029-0.175 0.039-0.204-0.039-0.039-0.116 0.155-0.073 0.339-0.068 0.451 0.015z"></path>
<path d="M23.913 8.606c0 0.078 0.010 0.107 0.024 0.058 0.010-0.044 0.010-0.111 0-0.145-0.015-0.029-0.024 0.005-0.024 0.087z"></path>
<path d="M22.594 10.153c0 0.015 0.044 0.049 0.097 0.078s0.097 0.039 0.097 0.029c0-0.015-0.044-0.049-0.097-0.078s-0.097-0.039-0.097-0.029z"></path>
<path d="M43.239 21.416c0.029 0.010 0.087 0.010 0.121 0 0.029-0.015 0.005-0.024-0.063-0.024s-0.092 0.010-0.058 0.024z"></path>
<path d="M40.485 24.504c0 0.010 0.034 0.044 0.073 0.078 0.044 0.034 0.073 0.039 0.073 0.010 0-0.024-0.034-0.058-0.073-0.078-0.039-0.015-0.073-0.019-0.073-0.010z"></path>
<path d="M46.778 25.731c0.034 0.015 0.078 0.010 0.092-0.005 0.019-0.015-0.010-0.029-0.063-0.024-0.053 0-0.068 0.015-0.029 0.029z"></path>
<path d="M41.731 25.993c0.019 0.063 0.039 0.087 0.053 0.049 0.010-0.034-0.005-0.087-0.029-0.111-0.039-0.039-0.044-0.019-0.024 0.063z"></path>
<path d="M41.809 26.245c0.010 0.029 0.097 0.078 0.204 0.116 0.102 0.034 0.257 0.121 0.349 0.189 0.16 0.121 0.233 0.111 0.078-0.015-0.141-0.111-0.65-0.344-0.63-0.291z"></path>
<path d="M53.551 26.419c-0.053 0.024-0.141 0.092-0.194 0.155l-0.097 0.116 0.097-0.082c0.053-0.044 0.175-0.116 0.267-0.155 0.175-0.078 0.102-0.102-0.073-0.034z"></path>
<path d="M39.384 26.642c0 0.107 0.010 0.145 0.019 0.082 0.010-0.058 0.010-0.145 0-0.194-0.015-0.044-0.024 0.005-0.019 0.111z"></path>
<path d="M46.827 28.267c-0.010 0.102 0 0.175 0.019 0.165 0.024-0.015 0.039-0.078 0.039-0.141 0-0.068 0.034-0.121 0.087-0.131 0.068-0.015 0.063-0.024-0.024-0.049-0.092-0.024-0.107-0.005-0.121 0.155z"></path>
<path d="M43.292 29.052c0.034 0.049 0.111 0.082 0.17 0.082 0.097-0.005 0.097-0.010 0.005-0.029-0.053-0.015-0.131-0.049-0.17-0.082-0.063-0.049-0.063-0.044-0.005 0.029z"></path>
<path d="M57.581 31.884c-0.019 0.044-0.019 0.092-0.005 0.107 0.010 0.015 0.034-0.015 0.053-0.058s0.019-0.092 0.005-0.107c-0.010-0.015-0.034 0.015-0.053 0.058z"></path>
</symbol>
</defs>
</svg>
